<svg xmlns="http://www.w3.org/2000/svg" xmlns:xlink="http://www.w3.org/1999/xlink" id="Layer_1" viewBox="0 0 252.04 407.09"><defs><style>.cls-1{fill:url(#linear-gradient);fill-rule:evenodd;}.cls-2{fill:#82c8be;}.cls-3{fill:#48479e;opacity:.4;}</style><linearGradient id="linear-gradient" x1="138.07" y1="406.66" x2="138.07" y2="14.01" gradientUnits="userSpaceOnUse"><stop offset="0" stop-color="#48479e"></stop><stop offset=".22" stop-color="#525ea3"></stop><stop offset=".67" stop-color="#6c98b2"></stop><stop offset="1" stop-color="#82c8be"></stop></linearGradient></defs><path class="cls-3" d="m195.4,217.35c.33-.05.57-.32.57-.65l.02-10.25,19.49-2.74c.33-.05.57-.32.57-.65l.02-10.25,19.49-2.74c.33-.05.57-.32.57-.65l.02-10.25,15.27-2.15c.33-.05.57-.32.57-.65l.04-21.65c0-.11-.03-.21-.08-.31-.02-.03-.04-.05-.06-.08-.03-.04-.05-.08-.08-.11-.02-.02-.05-.03-.08-.04-.02-.01-.02-.03-.04-.04l-24.11-13.11c-.12-.07-.27-.09-.41-.07l-15.84,2.23s-.02.01-.03.02c-.13.02-.25.09-.35.19-.02.02-.03.03-.04.05-.02.03-.05.05-.07.08-.05.09-.07.19-.07.3,0,0,0,.01,0,.02l-.02,10.25-19.49,2.74s-.02.01-.03.02c-.13.03-.25.09-.35.19-.02.02-.03.03-.04.05-.02.03-.05.05-.07.08-.05.09-.07.2-.07.3,0,0,0,.01,0,.02l-.02,10.25-19.49,2.74s-.02.01-.03.02c-.13.02-.25.09-.35.19-.02.02-.03.03-.04.05-.02.03-.05.05-.07.08-.05.09-.07.2-.07.3,0,0,0,.01,0,.02l-.02,10.25-4.65.65.03-14.64,9.46-1.33c.33-.05.57-.32.57-.65l.02-10.25,9.48-1.33c.33-.05.57-.32.57-.65l.02-10.25,9.46-1.33c.33-.05.57-.33.57-.65l.02-10.25,9.46-1.33c.33-.05.57-.32.57-.65l.04-21.1,9.46-1.33c.33-.05.57-.32.57-.65l.08-43.31c0-.11-.03-.21-.08-.31-.02-.03-.04-.05-.06-.08-.03-.04-.05-.08-.08-.11-.02-.02-.05-.03-.08-.04-.02-.01-.02-.03-.04-.04l-9.67-5.26.05-25.23c0-.11-.03-.21-.08-.31-.02-.03-.04-.05-.06-.08-.03-.04-.05-.08-.08-.11-.02-.02-.05-.03-.08-.04-.02-.01-.02-.03-.04-.04l-9.67-5.26v-3.57c0-.11-.03-.21-.08-.31-.02-.03-.04-.05-.06-.08-.03-.04-.05-.08-.08-.11-.02-.02-.05-.03-.08-.04-.02-.01-.02-.03-.04-.04l-24.11-13.11c-.12-.07-.27-.09-.41-.07l-4,.56L151.82.08c-.13-.07-.27-.09-.41-.07l-60.19,8.46s-.02.01-.03.02c-.13.02-.25.09-.35.19-.02.02-.03.03-.04.05-.02.03-.05.05-.07.08-.05.09-.07.2-.07.3,0,0,0,.01,0,.02l-.02,10.27-19.49,2.74s-.02.01-.03.02c-.13.02-.25.09-.35.19-.02.02-.03.03-.04.05-.02.03-.05.05-.07.08-.05.09-.07.19-.07.3,0,0,0,.01,0,.02l-.02,10.25-9.46,1.33s-.02.01-.03.02c-.13.03-.25.09-.35.19-.02.02-.03.03-.04.05-.02.03-.05.05-.07.08-.05.09-.07.2-.07.3,0,0,0,.01,0,.02l-.02,10.25-9.48,1.33s-.02.01-.03.02c-.13.03-.25.09-.35.19-.02.02-.03.03-.04.05-.02.03-.05.05-.07.08-.05.09-.07.2-.07.3,0,0,0,.01,0,.02l-.02,10.25-9.46,1.33s-.02.01-.03.02c-.13.03-.25.09-.35.19-.02.02-.03.03-.04.05-.02.03-.05.05-.07.08-.05.09-.07.2-.07.3,0,0,0,.01,0,.02l-.04,21.08-9.46,1.33s-.02.01-.03.02c-.13.03-.25.09-.35.19-.02.02-.03.03-.04.05-.02.03-.05.05-.07.08-.05.09-.07.2-.07.3,0,0,0,.01,0,.02l-.14,75.8c0,.24.13.47.35.58l9.67,5.26v3.57c0,.24.13.47.34.58l9.67,5.26v3.57c0,.24.13.47.34.58l24.11,13.11s.03,0,.04,0c.11.05.23.09.36.07l15.25-2.14v4.38c0,.24.12.47.34.58l24.11,13.12c.06.03.13.02.2.04.04,0,.08.04.12.04.03,0,.06,0,.09,0l20.06-2.82c.33-.05.57-.32.57-.65v-5.75s4.64,2.52,4.64,2.52v6.97s-9.47,1.33-9.47,1.33c-.01,0-.02.01-.03.02-.13.02-.25.09-.35.19-.02.02-.03.03-.04.05-.02.03-.05.05-.07.08-.05.09-.07.2-.07.3,0,0,0,.01,0,.02l-.02,10.27-3.42.48-15.65-8.51c-.12-.07-.27-.09-.41-.07l-4.01.56-15.62-8.5c-.12-.07-.27-.09-.41-.07l-24.09,3.39-15.62-8.5c-.12-.07-.27-.09-.41-.07L.59,205.24s-.02.01-.03.02c-.13.02-.25.09-.35.19-.02.02-.03.03-.04.05-.02.03-.05.05-.07.08-.05.09-.07.19-.07.3,0,0,0,.01,0,.02l-.02,10.83c0,.24.13.47.35.58l24.11,13.11s.03,0,.04,0c.11.05.24.09.37.07l4.01-.56,15.62,8.5s.03,0,.04,0c.11.05.24.09.36.07l14.02-1.97,5.59,3.04-3.8.53s-.02.01-.03.02c-.13.02-.25.09-.35.19-.02.02-.03.03-.04.05-.02.03-.05.05-.07.08-.05.09-.07.2-.07.3,0,0,0,.01,0,.02l-.02,10.25-9.48,1.33s-.02.01-.03.02c-.13.03-.25.09-.35.19-.02.02-.03.03-.04.05-.02.03-.05.05-.07.08-.05.09-.07.2-.07.3,0,0,0,.01,0,.02l-.02,10.25-19.49,2.74s-.02.01-.03.01c-.13.03-.25.09-.35.19-.02.02-.03.03-.04.05-.02.03-.05.05-.07.08-.05.09-.07.2-.07.3,0,0,0,.01,0,.02l-.02,10.25-9.46,1.33s-.02.01-.03.01c-.13.03-.25.09-.35.19-.02.02-.03.03-.04.05-.02.03-.05.05-.07.08-.05.09-.07.19-.07.3,0,0,0,.01,0,.02l-.02,10.83c0,.24.13.46.34.58l24.11,13.12c.06.03.13.02.2.04.04,0,.08.04.12.04.03,0,.06,0,.09,0l15.25-2.14-.11,58.53c0,.24.13.47.34.58l24.11,13.12s.03,0,.05,0c.11.05.24.08.36.07l45.32-6.37-.05,26.04c0,.24.13.47.34.58l24.11,13.12c.1.05.21.08.32.08.03,0,.06,0,.09,0l40.14-5.64c.33-.05.57-.33.57-.65l.08-42.73,19.49-2.74c.33-.05.57-.32.57-.65l.04-21.65c0-.11-.03-.21-.08-.31-.02-.03-.04-.05-.06-.08-.03-.04-.05-.08-.08-.11-.02-.02-.05-.03-.08-.04-.02-.01-.02-.03-.04-.04l-19.69-10.71.05-29.21c0-.11-.03-.21-.08-.31-.02-.03-.04-.05-.06-.08-.03-.04-.05-.08-.08-.11-.02-.02-.05-.03-.08-.04-.02-.01-.02-.03-.04-.04l-24.11-13.12c-.12-.07-.27-.09-.41-.07l-40.14,5.64c-.33.05-.57.33-.57.65l-.08,42.75-4.63.65.05-26.05c0-.11-.03-.21-.08-.31-.02-.03-.04-.05-.06-.08-.03-.04-.05-.08-.08-.11-.02-.02-.05-.02-.07-.04-.02-.01-.02-.03-.04-.04l-24.11-13.12c-.12-.07-.26-.09-.41-.07l-25.28,3.55v-3.81s19.52-2.74,19.52-2.74c.33-.05.57-.32.57-.65l.02-10.25,9.46-1.33c.33-.05.57-.33.57-.65l.02-10.25,19.49-2.74c.33-.05.57-.32.57-.65l.02-10.25,13.48-1.89,15.62,8.5s.03,0,.04,0c.11.05.24.09.36.07l4.01-.56,15.62,8.5s.03,0,.05,0c.11.05.23.08.36.06l24.09-3.39,15.62,8.5s.03,0,.05,0c.11.05.24.08.36.07l35.9-5.05c.33-.05.57-.32.57-.65l.02-10.83c0-.11-.03-.21-.08-.31-.02-.03-.04-.05-.06-.08-.03-.04-.05-.08-.08-.11-.02-.02-.05-.03-.08-.04-.02-.01-.02-.03-.04-.04l-5.45-2.97v-6.46c.01-.11-.02-.21-.07-.31-.02-.03-.04-.05-.06-.08-.03-.04-.05-.08-.08-.11-.02-.02-.05-.02-.07-.04-.02-.01-.02-.03-.04-.04l-24.11-13.12c-.13-.07-.27-.09-.41-.07l-14.04,1.97-15.62-8.5c-.12-.07-.27-.09-.41-.07l-4.01.56-1.18-.64v-3.02s9.47-1.33,9.47-1.33Z"></path><path class="cls-1" d="m235.53,157.16l-.02,10.83-10.03,1.41-10.03,1.41-.02,10.83-10.03,1.41-10.03,1.41-.02,10.83-10.03,1.41-10.05,1.41-.02,10.83-10.03,1.41-.02,10.83-10.03,1.41-.02,10.84-10.03,1.41-10.03,1.41.02-10.84-10.03,1.41-10.03,1.41.02-10.83-10.03,1.41-10.03,1.41-10.03,1.41-10.05,1.41.02-10.83-10.03,1.41-10.03,1.41-10.03,1.41-10.03,1.41-10.03,1.41-.02,10.83,10.03-1.41,10.03-1.41-.02,10.83,10.03-1.41,10.03-1.41,10.03-1.41-.02,10.84,10.05-1.41,10.03-1.41,10.03-1.41-.02,10.83-10.03,1.41-10.03,1.41-.02,10.83-10.05,1.41-.02,10.83-10.03,1.41-10.03,1.41-.02,10.83-10.03,1.41-.02,10.83,10.03-1.41,10.03-1.41,10.03-1.41.02-10.83,10.05-1.41,10.03-1.41.02-10.83,10.03-1.41.02-10.83,10.03-1.41,10.03-1.41.02-10.83,10.03-1.41,10.03-1.41,10.03-1.41-.02,10.83,10.03-1.41,10.03-1.41-.02,10.83,10.05-1.41,10.03-1.41,10.03-1.41,10.03-1.41-.02,10.83,10.03-1.41,10.03-1.41,10.03-1.41,5.81-.82.02-10.83-5.81.82.02-10.83-10.03,1.41-10.03,1.41-10.03,1.41.02-10.83-10.03,1.41-10.03,1.41.02-10.83-10.03,1.41.02-10.84,10.03-1.41.02-10.83,10.03-1.41,10.03-1.41.02-10.83,10.03-1.41,10.03-1.41.02-10.83,10.03-1.41,5.81-.82.02-10.83.02-10.83-5.81.82-10.03,1.41Zm-80.18-32.04l10.03-1.41,10.03-1.41,10.05-1.41.02-10.83.02-10.83.02-10.83.02-10.83.02-10.83-10.05,1.41-10.03,1.41-10.03,1.41-.02,10.83-.02,10.83-.02,10.83-.02,10.83-.02,10.83Zm20.1-24.47l-.02,10.83-10.03,1.41.02-10.83.02-10.83.02-10.83,10.03-1.41-.02,10.83-.02,10.83Zm-40.16,27.29l.02-10.83.02-10.83.02-10.83.02-10.83,10.03-1.41-.02,10.83-.02,10.83-.02,10.83-.02,10.83-.02,10.84-10.03,1.41.02-10.84Zm-50.16,7.05l.02-10.83.02-10.83.02-10.83.02-10.83,10.03-1.41,10.03-1.41,10.03-1.41-.02,10.83-.02,10.83-.02,10.83-.02,10.83-.02,10.84-10.03,1.41-10.03,1.41-10.03,1.41.02-10.84Zm20.08-13.65l-.02,10.83-10.03,1.41.02-10.83.02-10.83.02-10.83,10.03-1.41-.02,10.83-.02,10.83Zm-40.24,59.79l.02-10.83-10.03,1.41.02-10.83.02-10.83.02-10.84.02-10.83.02-10.83.02-10.83.02-10.83,10.03-1.41.02-10.83.02-10.83,10.03-1.41.02-10.83,10.05-1.41.02-10.83,10.03-1.41.02-10.83,10.03-1.41,10.03-1.41.02-10.84,10.03-1.41,10.03-1.41,10.03-1.41,10.03-1.41,10.03-1.41,10.03-1.41-.02,10.84,10.05-1.41,10.03-1.41-.02,10.83,10.03-1.41-.02,10.83-.02,10.83-.02,10.83,10.03-1.41-.02,10.83-.02,10.83-.02,10.83-.02,10.83-10.03,1.41-.02,10.83-.02,10.84-10.03,1.41-.02,10.83-10.03,1.41-.02,10.83-10.05,1.41-.02,10.83-10.03,1.41-.02,10.83-.02,10.83-.02,10.83-10.03,1.41-10.03,1.41.02-10.83-10.03,1.41-.02,10.83-10.03,1.41-10.03,1.41.02-10.83.02-10.83-10.03,1.41-10.03,1.41-10.03,1.41-10.05,1.41.02-10.83-10.03,1.41Zm130.13,144.09l-.02,10.84,20.06-2.82-.04,21.65-20.06,2.82-.02,10.83-.02,10.83-.02,10.83-.02,10.83-10.03,1.41-10.05,1.41-10.03,1.41-10.03,1.41.04-21.65.02-10.83.02-10.83-10.03,1.41-10.03,1.41-10.03,1.41-10.03,1.41-10.03,1.41-10.03,1.41-10.03,1.41.02-10.83v-6.35s.02-4.47.02-4.47l.04-19.42.04-23.91,10.03-1.41,10.03-1.41,10.03-1.41,10.03-1.41-.08,43.32,10.03-1.41,10.03-1.41,10.03-1.41v-4.83s.02-6.01.02-6.01l.02-10.83.04-21.65,10.03-1.41,10.03-1.41,10.05-1.41,10.03-1.41-.02,10.83-.02,10.83-.02,10.83Z"></path><path class="cls-2" d="m115.21,86.56l-30.09,4.23c-.33.05-.57.32-.57.65l-.1,54.15c0,.19.08.37.23.5.12.11.28.16.43.16.03,0,.06,0,.09,0l30.09-4.23c.33-.05.57-.32.57-.65l.1-54.15c0-.19-.08-.37-.23-.5-.14-.13-.33-.18-.53-.16Zm-.67,54.23l-28.77,4.04.02-10.08.08-42.73,28.77-4.04-.1,52.82Zm20.72-1.58s.06,0,.09,0l10.03-1.41c.33-.05.57-.32.57-.65l.1-54.15c0-.19-.08-.37-.23-.5-.14-.13-.33-.18-.53-.16l-10.03,1.41c-.33.05-.57.32-.57.65l-.1,54.15c0,.19.08.37.23.5.12.11.28.16.43.16Zm.68-11.5l.08-42.73,8.71-1.22-.1,52.81-8.71,1.22.02-10.08Zm39.45-49.6l-10.03,1.41c-.33.05-.57.32-.57.65l-.06,32.48c0,.19.08.37.23.5.12.11.28.16.43.16.03,0,.06,0,.09,0l10.03-1.41c.33-.05.57-.32.57-.65l.06-32.48c0-.19-.08-.37-.23-.5-.14-.12-.33-.18-.53-.16Zm-.61,22.31l-.02,10.25-8.71,1.22.06-31.15,8.71-1.22-.04,20.89Zm-79.63,33.59s.06,0,.09,0l10.03-1.41c.33-.05.57-.32.57-.65l.02-10.83.04-21.65c0-.19-.08-.37-.23-.5-.14-.13-.33-.18-.53-.16l-10.03,1.41c-.33.05-.57.32-.57.65l-.06,32.48c0,.19.08.37.23.5.12.11.28.16.43.16Zm.72-32.57l8.71-1.22-.06,31.15-8.71,1.22.06-31.15Zm59.47,24.11s.06,0,.09,0l30.11-4.23c.33-.05.57-.32.57-.65l.1-54.13c0-.19-.08-.37-.23-.5-.14-.12-.34-.18-.53-.16l-30.11,4.23c-.33.05-.57.32-.57.65l-.1,54.13c0,.19.08.37.23.5.12.11.28.16.43.16Zm.76-54.22l28.79-4.05-.1,52.8-28.79,4.05.1-52.8Zm39.29,146.03c.33-.05.57-.32.57-.65l.02-10.25,19.49-2.74c.33-.05.57-.32.57-.65l.02-10.25,19.49-2.74c.33-.05.57-.32.57-.65l.02-10.25,15.27-2.15c.33-.05.57-.32.57-.65l.04-21.65c0-.11-.03-.21-.08-.31-.02-.03-.04-.05-.06-.08-.03-.04-.05-.08-.08-.11-.02-.02-.05-.03-.08-.04-.02-.01-.02-.03-.04-.04l-24.11-13.11c-.12-.07-.27-.09-.41-.07l-15.84,2.23s-.02.01-.03.02c-.13.03-.25.09-.35.19-.02.02-.03.03-.04.05-.02.03-.05.05-.07.08-.05.09-.07.2-.07.3,0,0,0,.01,0,.02l-.02,10.25-19.49,2.74s-.02.01-.03.02c-.13.03-.25.09-.35.19-.02.02-.03.03-.04.05-.02.03-.05.05-.07.08-.05.09-.07.2-.07.3,0,0,0,.01,0,.02l-.02,10.25-19.49,2.74s-.02.01-.03.02c-.13.03-.25.09-.35.19-.02.02-.03.03-.04.05-.02.03-.05.05-.07.08-.05.09-.07.2-.07.3,0,0,0,.01,0,.02l-.02,10.25-4.65.65.03-14.64,9.46-1.33c.33-.05.57-.32.57-.65l.02-10.25,9.48-1.33c.33-.05.57-.32.57-.65l.02-10.25,9.46-1.33c.33-.05.57-.32.57-.65l.02-10.25,9.46-1.33c.33-.05.57-.32.57-.65l.04-21.1,9.46-1.33c.33-.05.57-.32.57-.65l.08-43.31c0-.11-.03-.21-.08-.31-.02-.03-.04-.05-.06-.08-.03-.04-.05-.08-.08-.11-.02-.02-.05-.03-.08-.04-.02-.01-.02-.03-.04-.04l-9.67-5.26.05-25.23c0-.11-.03-.21-.08-.31-.02-.03-.04-.05-.06-.08-.03-.04-.05-.08-.08-.11-.02-.02-.05-.03-.08-.04-.02-.01-.02-.03-.04-.04l-9.67-5.26v-3.57c0-.11-.03-.21-.08-.31-.02-.03-.04-.05-.06-.08-.03-.04-.05-.08-.08-.11-.02-.02-.05-.03-.08-.04-.02-.01-.02-.03-.04-.04l-24.11-13.11c-.12-.07-.27-.09-.41-.07l-4,.56L151.82.08c-.13-.07-.27-.09-.41-.07l-60.19,8.46s-.02.01-.03.02c-.13.03-.25.09-.35.19-.02.02-.03.03-.04.05-.02.03-.05.05-.07.08-.05.09-.07.2-.07.3,0,0,0,.01,0,.02l-.02,10.27-19.49,2.74s-.02.01-.03.02c-.13.03-.25.09-.35.19-.02.02-.03.03-.04.05-.02.03-.05.05-.07.08-.05.09-.07.2-.07.3,0,0,0,.01,0,.02l-.02,10.25-9.46,1.33s-.02.01-.03.02c-.13.03-.25.09-.35.19-.02.02-.03.03-.04.05-.02.03-.05.05-.07.08-.05.09-.07.2-.07.3,0,0,0,.01,0,.02l-.02,10.25-9.48,1.33s-.02.01-.03.02c-.13.02-.25.09-.35.19-.02.02-.03.03-.04.05-.02.03-.05.05-.07.08-.05.09-.07.2-.07.3,0,0,0,.01,0,.02l-.02,10.25-9.46,1.33s-.02.01-.03.02c-.13.03-.25.09-.35.19-.02.02-.03.03-.04.05-.02.03-.05.05-.07.08-.05.09-.07.2-.07.3,0,0,0,.01,0,.02l-.04,21.08-9.46,1.33s-.02.01-.03.02c-.13.03-.25.09-.35.19-.02.02-.03.03-.04.05-.02.03-.05.05-.07.08-.05.09-.07.2-.07.3,0,0,0,.01,0,.02l-.14,75.8c0,.24.13.47.34.58l9.67,5.26v3.57c0,.24.13.47.34.58l9.67,5.26v3.57c0,.24.13.47.34.58l24.11,13.11s.03,0,.04,0c.11.05.23.09.36.07l15.25-2.14v4.38c0,.24.12.47.34.58l24.11,13.12c.06.03.13.02.2.04.04,0,.08.04.12.04.03,0,.06,0,.09,0l20.06-2.82c.33-.05.57-.32.57-.65v-5.75s4.64,2.52,4.64,2.52v6.97s-9.48,1.33-9.48,1.33c-.01,0-.02.01-.03.02-.13.03-.25.09-.35.19-.02.02-.03.03-.04.05-.02.03-.05.05-.07.08-.05.09-.07.2-.07.3,0,0,0,.01,0,.02l-.02,10.27-3.42.48-15.65-8.51c-.12-.07-.27-.09-.41-.07l-4.01.56-15.62-8.5c-.12-.07-.27-.09-.41-.07l-24.09,3.39-15.62-8.5c-.12-.07-.27-.09-.41-.07L.59,205.24s-.02.01-.03.02c-.13.02-.25.09-.35.19-.02.02-.03.03-.04.05-.02.03-.05.05-.07.08-.05.09-.07.2-.07.3,0,0,0,.01,0,.02L0,216.72c0,.24.13.47.34.58l24.11,13.11s.03,0,.04,0c.11.05.24.09.37.07l4.01-.56,15.62,8.5s.03,0,.04,0c.11.05.24.09.36.07l14.02-1.97,5.59,3.04-3.8.53s-.02.01-.03.02c-.13.03-.25.09-.35.19-.02.02-.03.03-.04.05-.02.03-.05.05-.07.08-.05.09-.07.2-.07.3,0,0,0,.01,0,.02l-.02,10.25-9.48,1.33s-.02.01-.03.02c-.13.02-.25.09-.35.19-.02.02-.03.03-.04.05-.02.03-.05.05-.07.08-.05.09-.07.2-.07.3,0,0,0,.01,0,.02l-.02,10.25-19.49,2.74s-.02.01-.03.01c-.13.03-.25.09-.35.19-.02.02-.03.03-.04.05-.02.03-.05.05-.07.08-.05.09-.07.2-.07.3,0,0,0,.01,0,.02l-.02,10.25-9.46,1.33s-.02.01-.03.01c-.13.03-.25.09-.35.19-.02.02-.03.03-.04.05-.02.03-.05.05-.07.08-.05.09-.07.2-.07.3,0,0,0,.01,0,.02l-.02,10.83c0,.24.13.47.34.58l24.11,13.12c.06.03.13.02.2.04.04,0,.08.04.12.04.03,0,.06,0,.09,0l15.25-2.14-.11,58.53c0,.24.13.47.34.58l24.11,13.12s.03,0,.05,0c.11.05.24.08.36.07l45.32-6.37-.05,26.04c0,.24.13.47.34.58l24.11,13.12c.1.05.21.08.32.08.03,0,.06,0,.09,0l40.14-5.64c.33-.05.57-.32.57-.65l.08-42.73,19.49-2.74c.33-.05.57-.32.57-.65l.04-21.65c0-.11-.03-.21-.08-.31-.02-.03-.04-.05-.06-.08-.03-.04-.05-.08-.08-.11-.02-.02-.05-.03-.08-.04-.02-.01-.02-.03-.04-.04l-19.69-10.71.05-29.21c0-.11-.03-.21-.08-.31-.02-.03-.04-.05-.06-.08-.03-.04-.05-.08-.08-.11-.02-.02-.05-.02-.08-.04-.02-.01-.02-.03-.04-.04l-24.11-13.12c-.12-.07-.27-.09-.41-.07l-40.14,5.64c-.33.05-.57.32-.57.65l-.08,42.75-4.63.65.05-26.05c0-.11-.03-.21-.08-.31-.02-.03-.04-.05-.06-.08-.03-.04-.05-.08-.08-.11-.02-.02-.05-.02-.07-.04-.02-.01-.03-.03-.04-.04l-24.11-13.11c-.12-.07-.26-.09-.41-.07l-25.28,3.55v-3.81s19.52-2.74,19.52-2.74c.33-.05.57-.32.57-.65l.02-10.25,9.46-1.33c.33-.05.57-.32.57-.65l.02-10.25,19.49-2.74c.33-.05.57-.32.57-.65l.02-10.25,13.48-1.89,15.62,8.5s.03,0,.04,0c.11.05.24.09.36.07l4.01-.56,15.62,8.5s.03,0,.05,0c.11.05.23.08.36.06l24.09-3.39,15.62,8.5s.03,0,.05,0c.11.05.24.08.36.07l35.9-5.05c.33-.05.57-.32.57-.65l.02-10.83c0-.11-.03-.21-.08-.31-.02-.03-.04-.05-.06-.08-.03-.04-.05-.08-.08-.11-.02-.02-.05-.03-.08-.04-.02-.01-.02-.03-.04-.04l-5.46-2.97v-6.46c.01-.11-.02-.21-.07-.31-.02-.03-.04-.05-.06-.08-.03-.04-.05-.08-.08-.11-.02-.02-.05-.02-.07-.04-.02-.01-.02-.03-.04-.04l-24.11-13.12c-.13-.07-.27-.09-.41-.07l-14.04,1.97-15.62-8.5c-.12-.07-.26-.09-.41-.07l-4.01.56-1.18-.64v-3.02s9.47-1.33,9.47-1.33Zm53.9-63.03l-13.64,1.92-22.16-12.05,13.64-1.92,22.16,12.05Zm-37.23-.08l.02-9.32,22.79,12.4-.02,9.32-22.79-12.4Zm-.79,1.08l22.16,12.05-17.86,2.51-22.16-12.05,17.86-2.51Zm-19.3,12.57l.02-9.32,22.79,12.4-.02,9.32-22.79-12.4Zm-.79,1.08l22.16,12.05-17.86,2.51-22.16-12.05,17.86-2.51Zm-19.3,12.57l.02-9.32,22.79,12.4-.02,9.32-22.79-12.4Zm-.79,1.08l22.16,12.05-17.88,2.51-9.48-5.16.02-8.68,5.18-.73Zm-5.6,26.78l-13.86-7.54,13.68-1.92c.33-.05.57-.32.57-.65v-5.75s8.71,4.73,8.71,4.73l-.02,9.86-9.08,1.28Zm48.06-147.48l-7.29,1.02v-4.99s7.29,3.96,7.29,3.96Zm-9.97-31.07l-7.29,1.03v-4.99s7.29,3.96,7.29,3.96Zm-10.01-9.42l-17.34,2.44.02-10.08s-.01-.05-.02-.08c0-.05-.01-.11-.03-.16-.01-.03-.03-.07-.05-.1-.03-.04-.06-.09-.09-.12-.01-.01-.02-.03-.03-.05-.02-.01-.04-.02-.06-.03-.02-.02-.04-.04-.06-.05l-6.51-3.54,2.02-.28,22.16,12.05Zm-26.57-11.56l6.51,3.54-57.99,8.15-22.16-12.05L151.38,1.34l15.64,8.51Zm-75.64,10.76c.33-.05.57-.32.57-.65l.02-9.73,22.79,12.4-.02,9.88-19.28,2.71-22.16-12.05,18.08-2.54Zm-20.08,13.65c.33-.05.57-.32.57-.65l.02-9.72,22.79,12.4-.02,9.86-9.25,1.3-22.16-12.05,8.05-1.13Zm-10.05,12.24c.33-.05.57-.32.57-.65l.02-9.72,22.79,12.4-.02,9.86-9.26,1.3-22.16-12.05,8.06-1.13Zm-10.07,12.24c.33-.05.57-.32.57-.65l.02-9.72,22.79,12.4-.02,9.86-9.25,1.3-22.16-12.05,8.05-1.13Zm-10.07,23.06c.33-.05.57-.32.57-.65l.04-20.54,22.79,12.4-.04,20.69-9.25,1.3-22.16-12.05,8.05-1.13Zm-9.6,76.17l.14-74.3,22.79,12.4-.14,74.3-13.11-7.13-9.67-5.26Zm10.01,9.42v-2.46s13.12,7.13,13.12,7.13c.02,0,.03,0,.05.01.06.03.13.04.2.05.02,0,.04.02.07.02.01,0,.02,0,.04-.01.02,0,.04,0,.06,0l9.28-1.3-.02,8.95-13.12-7.13-9.67-5.26Zm10.01,6.95l13.12,7.13s.04,0,.05.01c.06.03.13.04.2.05.02,0,.04.02.07.02.01,0,.02,0,.04-.01.02,0,.04,0,.06,0l9.28-1.3-.02,8.95-22.79-12.4v-2.46Zm40.11,14.3l22.82-3.21-.04,19.78-22.79-12.4v-4.18Zm24.11,16.93l.04-20.89c0-.19-.08-.37-.23-.5-.12-.11-.28-.16-.43-.16-.03,0-.06,0-.09,0l-24.14,3.39h0l-4.24.6-11.01,1.55.02-10.06c0-.19-.08-.37-.23-.5-.14-.13-.34-.18-.53-.16l-9.28,1.3.02-10.06c0-.19-.08-.37-.23-.5-.14-.12-.33-.18-.53-.16l-9.28,1.3.14-74.47,9.46-1.33c.33-.05.57-.32.57-.65l.04-21.08,9.46-1.33c.33-.05.57-.32.57-.65l.02-10.25,9.48-1.33c.33-.05.57-.32.57-.65l.02-10.25,9.46-1.33c.33-.05.57-.32.57-.65l.02-10.25,19.49-2.74c.33-.05.57-.32.57-.65l.02-10.27,58.86-8.27-.02,10.08c0,.19.08.37.23.5.14.13.33.18.53.16l19.32-2.72v3.21s0,0,0,0v6.86c-.01.19.07.37.21.5.14.13.33.19.53.16l9.28-1.3-.05,24.86s0,0,0,0v6.86c-.01.19.07.37.21.5.15.13.33.19.53.16l9.28-1.3-.08,41.97-9.46,1.33c-.33.05-.57.32-.57.65l-.04,21.1-9.46,1.33c-.33.05-.57.32-.57.65l-.02,10.25-9.46,1.33c-.33.05-.57.32-.57.65l-.02,10.25-9.48,1.33c-.33.05-.57.32-.57.65l-.02,10.25-9.46,1.33c-.33.05-.57.32-.57.65l-.03,15.97s0,0,0,0l-.03,15.93-18.74,2.63.02-10.07c0-.19-.08-.37-.23-.5-.14-.12-.34-.17-.53-.16l-10.03,1.41c-.33.05-.57.32-.57.65l-.02,10.25-18.74,2.63Zm25.44,2.91c.33-.05.57-.32.57-.65v-7.93c.01-.24-.12-.47-.33-.58l-5.6-3.05v-3s8.71-1.22,8.71-1.22l-.02,10.07c0,.19.08.37.23.5.15.13.34.19.53.16l4.18-.59,15.11,8.22-.02,9.97-9.25,1.3-22.16-12.05,8.05-1.13Zm-9.48,11.21l.02-9.34,22.79,12.4-.02,9.34-22.79-12.4Zm-.79,1.08l22.16,12.05-17.33,2.43.02-10.08s-.01-.05-.02-.08c0-.05-.01-.11-.03-.16-.01-.03-.03-.07-.05-.1-.03-.04-.06-.09-.09-.12-.01-.01-.02-.03-.03-.05-.02-.02-.04-.02-.06-.03-.02-.01-.04-.04-.06-.05l-6.51-3.54,2.01-.28Zm-4.4.49l6.51,3.54-17.32,2.43.02-10.07s-.01-.05-.02-.08c0-.05-.01-.11-.03-.16-.01-.03-.03-.07-.05-.1-.03-.04-.05-.09-.09-.12-.01-.01-.02-.03-.03-.05-.02-.02-.04-.02-.06-.03-.02-.01-.03-.04-.06-.05l-6.54-3.56,2.03-.29,15.65,8.51Zm-20.07-8.02s0,0,0,0l6.54,3.56-37.4,5.26.02-10.06s-.01-.05-.02-.08c0-.05-.01-.11-.03-.16-.01-.03-.03-.07-.05-.1-.03-.04-.06-.09-.09-.12-.01-.01-.02-.03-.03-.05-.02-.02-.04-.02-.06-.03-.02-.01-.03-.04-.06-.05l-6.54-3.56,22.11-3.11,15.62,8.5Zm-40.12-5.19l6.54,3.56-47.96,6.74-22.16-12.05,47.96-6.74,15.62,8.5Zm-64.99-1.02l22.79,12.4-.02,9.32-22.79-12.4.02-9.32Zm42.81,29.73l-13.08-7.11,13.1-1.84-.02,8.95Zm22.75,2.63l-5.78-3.14,13.12-1.84-.02,10.08c0,.19.08.37.23.5.15.13.34.19.53.16l29.35-4.13-.02,9.49-19.28,2.71-22.16-12.05,3.8-.53c.28-.04.51-.26.56-.54.05-.28-.08-.56-.33-.7Zm-6.03,12.88c.33-.05.57-.32.57-.65l.02-9.72,22.79,12.4-.02,9.86-9.26,1.3-22.16-12.05,8.06-1.13Zm-9.5,11.19l.02-9.32,22.79,12.4-.02,9.32-22.79-12.4Zm-.79,1.08l22.16,12.05-17.86,2.51-22.16-12.05,17.86-2.51Zm-19.87,13.62c.33-.05.57-.32.57-.65l.02-9.72,22.79,12.4-.02,9.86-9.25,1.3-22.16-12.05,8.05-1.13Zm-9.46,1.87l22.79,12.4-.02,9.32-22.79-12.4.02-9.32Zm40.09,21.16l7.23-1.02,15.57,8.36-.12,63.38-22.79-12.4.11-58.33Zm70.08,65.94l22.82-3.21-.08,41.44-22.79-12.4.05-25.83Zm63.53-10.26c-.33.05-.57.32-.57.65l-.08,42.73-38.82,5.46.08-42.55c0-.19-.08-.37-.23-.5-.12-.11-.28-.16-.43-.16-.03,0-.06,0-.09,0l-69.46,9.76.12-63.64,38.8-5.45-.05,26.05s0,0,0,0l-.03,16.51c0,.19.08.37.23.5.15.13.34.19.53.16l30.09-4.23s.04-.03.07-.04c.1-.03.19-.07.27-.15.03-.03.06-.05.09-.09.02-.02.05-.04.06-.06.05-.09.07-.2.07-.3,0,0,0-.01,0-.02l.08-42.75,38.82-5.45-.05,28.84h0s-.03,13.72-.03,13.72c0,.19.08.37.23.5.15.13.33.18.53.16l19.31-2.71-.04,20.32-19.49,2.74Zm-63.38-70.69l22.79,12.41-.08,41.81-22.79-12.4.08-41.82Zm81.5,46.49l-17.33,2.44.02-10.08v-1.76s17.31,9.41,17.31,9.41Zm-19.98-40.5l-37.95,5.33-22.14-12.06,37.94-5.33,22.16,12.05Zm-62.38,36.91l22.16,12.05-27.36,3.84.03-15.17,5.17-.73Zm-30.01-39.09l22.16,12.05-38.06,5.35-14-7.52,4.08-.57c.33-.05.57-.32.57-.65v-5.11s25.26-3.55,25.26-3.55Zm53.75-36.22l-13.08-7.11,13.1-1.84-.02,8.95Zm20.04,8.01l-13.08-7.11,13.09-1.84-.02,8.95Zm40.12,5.19l-13.08-7.11,13.09-1.84-.02,8.95Zm1.32.35l.02-10.06c0-.19-.08-.37-.23-.5-.14-.12-.33-.18-.53-.16l-15.83,2.22s0,0,0,0l-17.58,2.47-5.98.84.02-10.06c0-.19-.08-.37-.23-.5-.14-.13-.33-.18-.53-.16l-15.83,2.22s0,0,0,0l-3.33.47-.14.02.02-10.07c0-.19-.08-.37-.23-.5-.14-.12-.33-.18-.53-.16l-30.09,4.23c-.33.05-.57.32-.57.65l-.02,10.25-19.49,2.74c-.33.05-.57.32-.57.65l-.02,10.25-9.46,1.33c-.33.05-.57.32-.57.65l-.02,10.25-19.51,2.74c-.33.05-.57.32-.57.65l-.02,10.25-28.77,4.04.02-9.49,9.46-1.33c.33-.05.57-.32.57-.65l.02-10.25,19.49-2.74s.04-.03.07-.04c.1-.03.19-.07.27-.15.03-.03.06-.05.09-.09.02-.02.05-.04.06-.06.05-.09.07-.2.07-.3,0,0,0-.01,0-.02l.02-10.25,9.48-1.33c.33-.05.57-.32.57-.65l.02-10.25,19.49-2.74c.33-.05.57-.32.57-.65l.02-10.83c0-.19-.08-.37-.23-.5-.14-.13-.33-.18-.53-.16l-29.35,4.13.02-10.08c0-.19-.08-.37-.23-.5-.14-.13-.33-.18-.53-.16l-15.86,2.23s0,0,0,0l-12.04,1.69-1.44.2.02-10.07c0-.19-.08-.37-.23-.5-.14-.12-.33-.18-.53-.16l-19.31,2.71.02-9.49,48.83-6.86-.02,10.06c0,.19.08.37.23.5.15.13.34.19.53.16l39.39-5.54-.02,10.07c0,.19.08.37.23.5.15.13.33.19.53.16l19.31-2.71-.02,10.08c0,.19.08.37.23.5.15.13.34.19.53.16l20.06-2.82s.04-.03.07-.04c.1-.03.19-.07.27-.15.03-.03.06-.05.09-.09.02-.02.05-.04.06-.06.05-.09.07-.2.07-.3,0,0,0-.01,0-.02l.02-10.27,9.46-1.33c.33-.05.57-.32.57-.65l.02-10.25,9.46-1.33c.33-.05.57-.32.57-.65l.02-10.25,19.51-2.74s.04-.03.07-.04c.1-.03.19-.07.27-.15.03-.03.06-.05.09-.09.02-.02.05-.04.06-.06.05-.09.07-.2.07-.3,0,0,0-.01,0-.02l.02-10.25,19.49-2.74s.04-.03.07-.04c.1-.03.19-.07.27-.15.03-.03.06-.05.09-.09.02-.02.05-.04.06-.06.05-.09.07-.2.07-.3,0,0,0-.01,0-.02l.02-10.25,19.49-2.74s.04-.03.07-.04c.1-.03.19-.07.27-.15.03-.03.06-.05.09-.09.02-.02.05-.04.06-.06.05-.09.07-.2.07-.3,0,0,0-.01,0-.02l.02-10.25,14.52-2.04-.04,20.32-15.27,2.15c-.33.05-.57.32-.57.65l-.02,10.25-19.49,2.74c-.33.05-.57.32-.57.65l-.02,10.25-19.49,2.74c-.33.05-.57.32-.57.65l-.02,10.25-9.46,1.33c-.33.05-.57.32-.57.65v3.98s0,0,0,0v6.86c-.01.19.07.37.21.5.15.13.34.18.53.16l9.28-1.3-.02,10.06c0,.19.08.37.23.5.15.13.33.19.53.16l19.31-2.71-.02,10.07c0,.19.08.37.23.5.15.13.33.19.53.16l29.34-4.12v6.09s-.01,0-.01,0v3.97c0,.19.08.37.22.5.15.13.34.18.53.16l5.05-.71-.02,9.49-34.58,4.86Zm33.19-15.49l-3.07.43v-2.1s3.07,1.67,3.07,1.67Zm-5.79-10.01l-27.36,3.84.02-10.07s-.01-.05-.02-.08c0-.05-.01-.11-.03-.16-.01-.03-.03-.07-.05-.1-.03-.04-.06-.09-.09-.12-.01-.01-.02-.03-.03-.05-.02-.01-.04-.02-.06-.03-.02-.02-.04-.04-.06-.05l-6.54-3.56,12.06-1.7,22.16,12.05Zm-36.61-10.15l6.54,3.56-17.32,2.43.02-10.06s-.01-.05-.02-.08c0-.05-.01-.11-.03-.16-.01-.03-.03-.06-.05-.1-.03-.05-.06-.09-.09-.13-.01-.01-.02-.03-.03-.05-.02-.01-.04-.02-.06-.03-.02-.02-.04-.04-.06-.05l-6.54-3.56,2.03-.28,15.62,8.5Zm-20.05-8.01s0,0,0,0l6.54,3.56-7.29,1.03v-4.99s.75.4.75.4Z"></path></svg>