<svg xmlns="http://www.w3.org/2000/svg" id="Layer_1" viewBox="0 0 2301.48 5002.64"><defs><style>.cls-1{fill:none;}.cls-2{fill:#fff;}.cls-3{opacity:.5;}</style></defs><path class="cls-2" d="m2270.3,1926.82c-.37-.58-1.15-.77-1.75-.41-.6.36-.79,1.12-.42,1.7.37.58,1.15.77,1.75.41.6-.36.79-1.12.42-1.7Z"></path><path class="cls-2" d="m2273.18,2344.27c-.45-.71-1.4-.93-2.13-.5-.73.43-.96,1.36-.51,2.07.45.71,1.4.93,2.13.5.73-.43.96-1.36.51-2.07Z"></path><g class="cls-3"><g><ellipse class="cls-2" cx="69.09" cy="977.49" rx="1.38" ry="1.34"></ellipse><path class="cls-2" d="m1418.84,798.82c0-.22.19-.4.41-.4s.41.18.41.4-.19.4-.41.4-.41-.18-.41-.4Z"></path><path class="cls-2" d="m436.54,1792.55c0-1.48,1.24-2.68,2.76-2.68s2.76,1.2,2.76,2.68-1.24,2.68-2.76,2.68-2.76-1.2-2.76-2.68Z"></path><path class="cls-2" d="m543.75,1847.91c0-2.07,1.73-3.75,3.86-3.75s3.86,1.68,3.86,3.75-1.73,3.75-3.86,3.75-3.86-1.68-3.86-3.75Z"></path><path class="cls-2" d="m565.55,1873.24c0-1.78,1.48-3.22,3.31-3.22s3.31,1.44,3.31,3.22-1.48,3.22-3.31,3.22-3.31-1.44-3.31-3.22Z"></path><path class="cls-2" d="m1810.72,1271.03c0-2.74,2.29-4.96,5.11-4.96s5.11,2.22,5.11,4.96-2.29,4.96-5.11,4.96-5.11-2.22-5.11-4.96Z"></path><path class="cls-2" d="m1618.92,1445.27c0-.96.8-1.74,1.79-1.74s1.79.78,1.79,1.74-.8,1.74-1.79,1.74-1.79-.78-1.79-1.74Z"></path><path class="cls-2" d="m581.83,2122.14c0-1.78,1.48-3.22,3.31-3.22s3.31,1.44,3.31,3.22-1.48,3.22-3.31,3.22-3.31-1.44-3.31-3.22Z"></path><path class="cls-2" d="m615.92,2253.23c0-1.41,1.17-2.55,2.62-2.55s2.62,1.14,2.62,2.55-1.17,2.55-2.62,2.55-2.62-1.14-2.62-2.55Z"></path><path class="cls-2" d="m1988.58,1580.38c0-1.11.93-2.01,2.07-2.01s2.07.9,2.07,2.01-.93,2.01-2.07,2.01-2.07-.9-2.07-2.01Z"></path><path class="cls-2" d="m676.08,2289.28c0-.37.31-.67.69-.67s.69.3.69.67-.31.67-.69.67-.69-.3-.69-.67Z"></path><ellipse class="cls-2" cx="1289" cy="2027.65" rx="3.17" ry="3.08"></ellipse><ellipse class="cls-2" cx="1787.95" cy="1783.84" rx="4" ry="3.89"></ellipse><path class="cls-2" d="m1939.73,1685.99c0-.52.43-.94.97-.94s.97.42.97.94-.43.94-.97.94-.97-.42-.97-.94Z"></path><ellipse class="cls-2" cx="755.56" cy="2324.93" rx="4.28" ry="4.16"></ellipse><path class="cls-2" d="m452.68,2547.16c0-.81.68-1.47,1.52-1.47s1.52.66,1.52,1.47-.68,1.47-1.52,1.47-1.52-.66-1.52-1.47Z"></path><ellipse class="cls-2" cx="1025.87" cy="2263.95" rx="3.73" ry="3.62"></ellipse><ellipse class="cls-2" cx="1328.6" cy="2102.04" rx="3.17" ry="3.08"></ellipse><ellipse class="cls-2" cx="799.16" cy="2428.68" rx=".83" ry=".8"></ellipse><path class="cls-2" d="m930.17,1916.52c0-3.33,2.78-6.03,6.21-6.03s6.21,2.7,6.21,6.03-2.78,6.03-6.21,6.03-6.21-2.7-6.21-6.03Z"></path><path class="cls-2" d="m1657.01,2030.33c0-1.7,1.42-3.08,3.17-3.08s3.17,1.38,3.17,3.08-1.42,3.08-3.17,3.08-3.17-1.38-3.17-3.08Z"></path><path class="cls-2" d="m950.8,2426.4c0-2.22,1.85-4.02,4.14-4.02s4.14,1.8,4.14,4.02-1.85,4.02-4.14,4.02-4.14-1.8-4.14-4.02Z"></path><ellipse class="cls-2" cx="1288.31" cy="2336.6" rx="5.11" ry="4.96"></ellipse><ellipse class="cls-2" cx="1451.13" cy="2260.73" rx="3.45" ry="3.35"></ellipse><path class="cls-2" d="m1550.62,2214.62c0-3.33,2.78-6.03,6.21-6.03s6.21,2.7,6.21,6.03-2.78,6.03-6.21,6.03-6.21-2.7-6.21-6.03Z"></path><path class="cls-2" d="m1986.79,1976.31c0-.22.19-.4.41-.4s.41.18.41.4-.19.4-.41.4-.41-.18-.41-.4Z"></path><path class="cls-2" d="m353.47,2881.17c0-.96.8-1.74,1.79-1.74s1.79.78,1.79,1.74-.8,1.74-1.79,1.74-1.79-.78-1.79-1.74Z"></path><path class="cls-2" d="m950.53,2588.31c0-.89.74-1.61,1.66-1.61s1.66.72,1.66,1.61-.74,1.61-1.66,1.61-1.66-.72-1.66-1.61Z"></path><path class="cls-2" d="m1052.08,2558.02c0-2.07,1.73-3.75,3.86-3.75s3.86,1.68,3.86,3.75-1.73,3.75-3.86,3.75-3.86-1.68-3.86-3.75Z"></path><ellipse class="cls-2" cx="654.28" cy="2845.12" rx="8.42" ry="8.18"></ellipse><path class="cls-2" d="m784.53,2775.82c0-1.92,1.61-3.48,3.59-3.48s3.59,1.56,3.59,3.48-1.61,3.48-3.59,3.48-3.59-1.56-3.59-3.48Z"></path><path class="cls-2" d="m1249.54,2555.2c0-1.41,1.17-2.55,2.62-2.55s2.62,1.14,2.62,2.55-1.17,2.55-2.62,2.55-2.62-1.14-2.62-2.55Z"></path><ellipse class="cls-2" cx="1601.12" cy="2398.79" rx="1.1" ry="1.07"></ellipse><path class="cls-2" d="m1487.97,2534.3c0-1.78,1.48-3.22,3.31-3.22s3.31,1.44,3.31,3.22-1.48,3.22-3.31,3.22-3.31-1.44-3.31-3.22Z"></path><path class="cls-2" d="m1888.4,2391.01c0-3.18,2.66-5.76,5.93-5.76s5.93,2.58,5.93,5.76-2.66,5.76-5.93,5.76-5.93-2.58-5.93-5.76Z"></path><path class="cls-2" d="m961.98,2934.12c0-1.78,1.48-3.22,3.31-3.22s3.31,1.44,3.31,3.22-1.48,3.22-3.31,3.22-3.31-1.44-3.31-3.22Z"></path><path class="cls-2" d="m448.27,3298.69c0-.67.56-1.21,1.24-1.21s1.24.54,1.24,1.21-.56,1.21-1.24,1.21-1.24-.54-1.24-1.21Z"></path><path class="cls-2" d="m758.18,3181.14c0-1.33,1.11-2.41,2.48-2.41s2.48,1.08,2.48,2.41-1.11,2.41-2.48,2.41-2.48-1.08-2.48-2.41Z"></path><ellipse class="cls-2" cx="921.55" cy="3051.26" rx="5.11" ry="4.96"></ellipse><path class="cls-2" d="m1536.55,2788.16c0-3.85,3.21-6.97,7.18-6.97s7.18,3.12,7.18,6.97-3.21,6.97-7.18,6.97-7.18-3.12-7.18-6.97Z"></path><path class="cls-2" d="m1348.61,2998.45c0-.44.37-.8.83-.8s.83.36.83.8-.37.8-.83.8-.83-.36-.83-.8Z"></path><path class="cls-2" d="m1746.14,2893.24c0-1.33,1.11-2.41,2.48-2.41s2.48,1.08,2.48,2.41-1.11,2.41-2.48,2.41-2.48-1.08-2.48-2.41Z"></path><path class="cls-2" d="m1965.12,2738.83c0-1.33,1.11-2.41,2.48-2.41s2.48,1.08,2.48,2.41-1.11,2.41-2.48,2.41-2.48-1.08-2.48-2.41Z"></path><ellipse class="cls-2" cx="644.48" cy="3446.66" rx="3.73" ry="3.62"></ellipse><path class="cls-2" d="m491.87,3714.46c0-1.7,1.42-3.08,3.17-3.08s3.17,1.38,3.17,3.08-1.42,3.08-3.17,3.08-3.17-1.38-3.17-3.08Z"></path><ellipse class="cls-2" cx="885.12" cy="3483.39" rx="3.73" ry="3.62"></ellipse><ellipse class="cls-2" cx="1401.32" cy="3227.52" rx="2.07" ry="2.01"></ellipse><ellipse class="cls-2" cx="481.66" cy="3758.16" rx="5.11" ry="4.96"></ellipse><path class="cls-2" d="m1630.93,3206.07c0-.67.56-1.21,1.24-1.21s1.24.54,1.24,1.21-.56,1.21-1.24,1.21-1.24-.54-1.24-1.21Z"></path><path class="cls-2" d="m1275.76,3419.05c0-1.41,1.17-2.55,2.62-2.55s2.62,1.14,2.62,2.55-1.17,2.55-2.62,2.55-2.62-1.14-2.62-2.55Z"></path><path class="cls-2" d="m1192.14,3559.39c0-1.48,1.24-2.68,2.76-2.68s2.76,1.2,2.76,2.68-1.24,2.68-2.76,2.68-2.76-1.2-2.76-2.68Z"></path><path class="cls-2" d="m337.33,4136.67c0-.52.43-.94.97-.94s.97.42.97.94-.43.94-.97.94-.97-.42-.97-.94Z"></path><ellipse class="cls-2" cx="1770.98" cy="3860.29" rx="1.52" ry="1.47"></ellipse><path class="cls-2" d="m1603.47,3992.85c0-1.63,1.36-2.95,3.04-2.95s3.04,1.32,3.04,2.95-1.36,2.95-3.04,2.95-3.04-1.32-3.04-2.95Z"></path></g><path class="cls-2" d="m290.38,4874.7c-.39-.62-1.22-.81-1.86-.43-.64.38-.83,1.19-.45,1.8.39.62,1.22.81,1.86.43.64-.38.83-1.19.45-1.8Z"></path><path class="cls-2" d="m210.41,4693.24c-.66-1.04-2.06-1.37-3.14-.73-1.07.64-1.41,2.01-.75,3.05.66,1.04,2.06,1.37,3.14.73,1.08-.64,1.41-2.01.75-3.05Z"></path><path class="cls-2" d="m603.05,4768.29c-.54-.85-1.69-1.12-2.57-.6-.88.52-1.16,1.64-.62,2.5.54.85,1.69,1.12,2.57.6.88-.52,1.16-1.64.62-2.5Z"></path><path class="cls-2" d="m928.18,4903.82c-.6-.95-1.88-1.25-2.85-.67-.98.58-1.28,1.82-.68,2.77.6.95,1.88,1.25,2.85.67.98-.58,1.28-1.82.68-2.77Z"></path><path class="cls-2" d="m1237.21,4919.56c1.53,2.42,4.79,3.18,7.28,1.7,2.49-1.48,3.27-4.65,1.75-7.07-.01-.02-.02-.03-.03-.05l-9.77,2.9c.03.86.28,1.73.77,2.52Z"></path><path class="cls-2" d="m66.76,4444.32c-.72-1.14-2.25-1.5-3.43-.8-1.17.7-1.54,2.19-.82,3.33.72,1.14,2.25,1.5,3.43.8,1.17-.7,1.54-2.19.82-3.33Z"></path><path class="cls-2" d="m481.57,4545.61c-.63-1-1.97-1.31-3-.7-1.03.61-1.35,1.91-.72,2.91.63,1,1.97,1.31,3,.7,1.03-.61,1.35-1.91.72-2.91Z"></path><path class="cls-2" d="m627.16,4645.83c-.48-.76-1.5-1-2.28-.53-.78.47-1.03,1.46-.55,2.22.48.76,1.5,1,2.28.53.78-.47,1.03-1.46.55-2.22Z"></path><path class="cls-2" d="m882.73,4674.73c-.54-.85-1.69-1.12-2.57-.6-.88.52-1.16,1.64-.62,2.5.54.85,1.69,1.12,2.57.6.88-.52,1.16-1.64.62-2.5Z"></path><path class="cls-2" d="m1140.24,4700c-1.17-1.85-3.66-2.43-5.57-1.3-1.91,1.13-2.5,3.56-1.34,5.41,1.17,1.85,3.66,2.43,5.57,1.3,1.91-1.13,2.5-3.56,1.34-5.41Z"></path><path class="cls-2" d="m1671.79,4879.44c-.51-.81-1.6-1.06-2.43-.57-.83.49-1.09,1.55-.58,2.36.51.81,1.6,1.06,2.43.57.83-.49,1.09-1.55.58-2.36Z"></path><path class="cls-2" d="m1729.15,4835.55c-.69-1.09-2.16-1.43-3.28-.76-1.12.67-1.48,2.1-.79,3.19.69,1.09,2.16,1.43,3.28.76,1.12-.67,1.48-2.1.79-3.19Z"></path><path class="cls-2" d="m156.52,4350.77c-.81-1.28-2.53-1.68-3.85-.9-1.32.79-1.73,2.46-.92,3.74.81,1.28,2.53,1.68,3.85.9,1.32-.79,1.73-2.46.92-3.74Z"></path><path class="cls-2" d="m259.17,4342.78c-.66-1.04-2.06-1.37-3.14-.73-1.08.64-1.41,2.01-.75,3.05.66,1.04,2.06,1.37,3.14.73,1.07-.64,1.41-2.01.75-3.05Z"></path><path class="cls-2" d="m746.47,4562.84c-.48-.76-1.5-1-2.28-.53-.78.47-1.03,1.46-.55,2.22.48.76,1.5,1,2.28.53s1.03-1.46.55-2.22Z"></path><path class="cls-2" d="m998.39,4592.29c-.9-1.42-2.82-1.87-4.28-1-1.47.87-1.93,2.74-1.03,4.16.9,1.42,2.82,1.87,4.28,1,1.47-.87,1.93-2.74,1.03-4.16Z"></path><path class="cls-2" d="m1168.06,4530.1c-1.83-2.9-5.73-3.8-8.71-2.03-2.98,1.78-3.92,5.56-2.09,8.46,1.83,2.9,5.73,3.8,8.71,2.03,2.98-1.78,3.92-5.56,2.09-8.46Z"></path><path class="cls-2" d="m1664.63,4743.13c-.78-1.23-2.44-1.62-3.71-.86-1.27.76-1.67,2.37-.89,3.6.78,1.23,2.44,1.62,3.71.86,1.27-.76,1.67-2.37.89-3.6Z"></path><path class="cls-2" d="m1940.57,4762.1c-.99-1.57-3.1-2.06-4.71-1.1-1.61.96-2.12,3.01-1.13,4.57.99,1.57,3.1,2.06,4.71,1.1,1.61-.96,2.12-3.01,1.13-4.57Z"></path><path class="cls-2" d="m2194.59,4750.04c-.57-.9-1.78-1.18-2.71-.63-.93.55-1.22,1.73-.65,2.63.57.9,1.78,1.18,2.71.63.93-.55,1.22-1.73.65-2.63Z"></path><path class="cls-2" d="m264.54,4243.86c-.84-1.33-2.63-1.75-4-.93-1.37.81-1.8,2.55-.96,3.88.84,1.33,2.63,1.75,4,.93,1.37-.81,1.8-2.55.96-3.88Z"></path><path class="cls-2" d="m510.44,4308.21c-.42-.66-1.31-.87-2-.47-.68.41-.9,1.28-.48,1.94.42.66,1.31.87,2,.47.68-.41.9-1.28.48-1.94Z"></path><path class="cls-2" d="m749.94,4362.24c-.54-.85-1.69-1.12-2.57-.6-.88.52-1.16,1.64-.62,2.5.54.85,1.69,1.12,2.57.6.88-.52,1.16-1.64.62-2.5Z"></path><path class="cls-2" d="m1078.67,4397.57c-2.25-3.56-7.04-4.68-10.7-2.49-3.67,2.18-4.81,6.84-2.57,10.4,2.25,3.56,7.04,4.68,10.7,2.49,3.67-2.18,4.81-6.84,2.57-10.4Z"></path><path class="cls-2" d="m1191.29,4479.1c-1.89-2.99-5.91-3.93-8.99-2.1-3.08,1.83-4.04,5.74-2.16,8.73,1.89,2.99,5.91,3.93,8.99,2.1,3.08-1.83,4.04-5.74,2.16-8.73Z"></path><path class="cls-2" d="m1521.98,4598.39c-.78-1.23-2.44-1.62-3.71-.86-1.27.76-1.67,2.37-.89,3.6.78,1.23,2.44,1.62,3.71.86,1.27-.76,1.67-2.37.89-3.6Z"></path><path class="cls-2" d="m1842.65,4650.83c-.9-1.42-2.82-1.87-4.28-1-1.47.87-1.93,2.74-1.03,4.16.9,1.42,2.82,1.87,4.28,1,1.47-.87,1.93-2.74,1.03-4.16Z"></path><path class="cls-2" d="m2235.94,4740.37c-.54-.85-1.69-1.12-2.57-.6-.88.52-1.16,1.64-.62,2.5.54.85,1.69,1.12,2.57.6.88-.52,1.16-1.64.62-2.5Z"></path><path class="cls-2" d="m291.67,4070.12c-1.32-2.09-4.13-2.74-6.28-1.46-2.15,1.28-2.82,4.01-1.51,6.1,1.32,2.09,4.13,2.74,6.28,1.46,2.15-1.28,2.82-4.01,1.51-6.1Z"></path><path class="cls-2" d="m490.85,4216.85c-.48-.76-1.5-1-2.28-.53-.78.47-1.03,1.46-.55,2.22.48.76,1.5,1,2.28.53.78-.47,1.03-1.46.55-2.22Z"></path><path class="cls-2" d="m865.18,4239.35c-.78-1.23-2.44-1.62-3.71-.86-1.27.76-1.67,2.37-.89,3.6.78,1.23,2.44,1.62,3.71.86,1.27-.76,1.67-2.37.89-3.6Z"></path><path class="cls-2" d="m1201.26,4337.79c-1.47-2.33-4.6-3.06-6.99-1.63-2.39,1.43-3.15,4.47-1.68,6.79,1.47,2.33,4.6,3.06,6.99,1.63,2.39-1.43,3.15-4.47,1.68-6.79Z"></path><path class="cls-2" d="m1648.17,4450.92c-.54-.85-1.69-1.12-2.57-.6-.88.52-1.16,1.64-.62,2.5.54.85,1.69,1.12,2.57.6.88-.52,1.16-1.64.62-2.5Z"></path><ellipse class="cls-2" cx="2004.34" cy="4421.43" rx="3.84" ry="3.73"></ellipse><path class="cls-2" d="m2200.92,4467.03c-.96-1.52-3-2-4.57-1.06-1.56.93-2.05,2.92-1.1,4.44.96,1.52,3,2,4.57,1.06,1.56-.93,2.05-2.92,1.1-4.44Z"></path><path class="cls-2" d="m306.92,4027.53c-1.26-1.99-3.94-2.62-5.99-1.4-2.05,1.22-2.7,3.83-1.44,5.82,1.26,1.99,3.94,2.62,5.99,1.4,2.05-1.22,2.7-3.83,1.44-5.82Z"></path><path class="cls-2" d="m515.4,3998.23c-.48-.76-1.5-1-2.28-.53-.78.47-1.03,1.46-.55,2.22.48.76,1.5,1,2.28.53.78-.47,1.03-1.46.55-2.22Z"></path><path class="cls-2" d="m808.71,4065.37c-.69-1.09-2.16-1.43-3.28-.76-1.12.67-1.48,2.1-.79,3.19.69,1.09,2.16,1.43,3.28.76,1.12-.67,1.48-2.1.79-3.19Z"></path><path class="cls-2" d="m1319.91,4153.54c-.63-1-1.97-1.31-3-.7-1.03.61-1.35,1.91-.72,2.91.63,1,1.97,1.31,3,.7,1.03-.61,1.35-1.91.72-2.91Z"></path><path class="cls-2" d="m1661.19,4303.07c-.54-.85-1.69-1.12-2.57-.6-.88.52-1.16,1.64-.62,2.5.54.85,1.69,1.12,2.57.6.88-.52,1.16-1.64.62-2.5Z"></path><path class="cls-2" d="m2078.79,4291.54c-.75-1.19-2.35-1.56-3.57-.83s-1.6,2.28-.86,3.47c.75,1.19,2.35,1.56,3.57.83,1.22-.73,1.6-2.28.86-3.47Z"></path><path class="cls-2" d="m2295.08,4385.26c-.72-1.14-2.25-1.5-3.43-.8-1.17.7-1.54,2.19-.82,3.33.72,1.14,2.25,1.5,3.43.8,1.17-.7,1.54-2.19.82-3.33Z"></path><path class="cls-2" d="m173.76,3771.27c-.69-1.09-2.16-1.43-3.28-.76-1.12.67-1.48,2.1-.79,3.19.69,1.09,2.16,1.43,3.28.76,1.12-.67,1.48-2.1.79-3.19Z"></path><path class="cls-2" d="m435.68,3878.91c-.6-.95-1.88-1.25-2.85-.67-.98.58-1.28,1.82-.68,2.77.6.95,1.88,1.25,2.85.67.98-.58,1.28-1.82.68-2.77Z"></path><path class="cls-2" d="m663.82,3946.63c-.81-1.28-2.53-1.68-3.85-.9-1.32.79-1.73,2.46-.92,3.74.81,1.28,2.53,1.68,3.85.9,1.32-.79,1.73-2.46.92-3.74Z"></path><path class="cls-2" d="m972.19,4032.69c-.87-1.38-2.72-1.81-4.14-.96-1.42.84-1.86,2.64-.99,4.02.87,1.38,2.72,1.81,4.14.96,1.42-.84,1.86-2.64.99-4.02Z"></path><path class="cls-2" d="m1399.81,4116.38c-.51-.81-1.6-1.06-2.43-.57-.83.49-1.09,1.55-.58,2.36.51.81,1.6,1.06,2.43.57.83-.49,1.09-1.55.58-2.36Z"></path><path class="cls-2" d="m1723.63,4084.42c-.57-.9-1.78-1.18-2.71-.63-.93.55-1.22,1.73-.65,2.63.57.9,1.78,1.18,2.71.63.93-.55,1.22-1.73.65-2.63Z"></path><path class="cls-2" d="m1895.57,4243.75c-.93-1.47-2.91-1.93-4.42-1.03-1.51.9-1.99,2.83-1.06,4.3.93,1.47,2.91,1.93,4.42,1.03,1.51-.9,1.99-2.83,1.06-4.3Z"></path><path class="cls-2" d="m63.81,3661.88c-.36-.57-1.13-.75-1.71-.4-.59.35-.77,1.09-.41,1.66.36.57,1.13.75,1.71.4.59-.35.77-1.09.41-1.66Z"></path><path class="cls-2" d="m308.51,3677.46c-.66-1.04-2.06-1.37-3.14-.73-1.07.64-1.41,2.01-.75,3.05.66,1.04,2.06,1.37,3.14.73,1.08-.64,1.41-2.01.75-3.05Z"></path><path class="cls-2" d="m491.56,3738.25c-.54-.85-1.69-1.12-2.57-.6-.88.52-1.16,1.64-.62,2.5s1.69,1.12,2.57.6c.88-.52,1.16-1.64.62-2.5Z"></path><path class="cls-2" d="m810.63,3851.39c-.57-.9-1.78-1.18-2.71-.63-.93.55-1.22,1.73-.65,2.63.57.9,1.78,1.18,2.71.63s1.22-1.73.65-2.63Z"></path><path class="cls-2" d="m1037.74,3807.72c-1.32-2.09-4.13-2.74-6.28-1.46-2.15,1.28-2.82,4.01-1.51,6.1,1.32,2.09,4.13,2.74,6.28,1.46,2.15-1.28,2.82-4.01,1.51-6.1Z"></path><path class="cls-2" d="m1318.41,3922.74c-.54-.85-1.69-1.12-2.57-.6-.88.52-1.16,1.64-.62,2.5.54.85,1.69,1.12,2.57.6.88-.52,1.16-1.64.62-2.5Z"></path><path class="cls-2" d="m1717.45,3933.55c-.51-.81-1.6-1.06-2.43-.57-.83.49-1.09,1.55-.58,2.36.51.81,1.6,1.06,2.43.57.83-.49,1.09-1.55.58-2.36Z"></path><path class="cls-2" d="m2054.8,4133.41c-.81-1.28-2.53-1.68-3.85-.9-1.32.79-1.73,2.46-.92,3.74.81,1.28,2.53,1.68,3.85.9,1.32-.79,1.73-2.46.92-3.74Z"></path><path class="cls-2" d="m351.41,3596.62c-.75-1.19-2.35-1.56-3.57-.83-1.22.73-1.6,2.28-.86,3.47.75,1.19,2.35,1.56,3.57.83,1.22-.73,1.6-2.28.86-3.47Z"></path><path class="cls-2" d="m600.13,3576.96c-.42-.66-1.31-.87-2-.47-.68.41-.9,1.28-.48,1.94.42.66,1.31.87,2,.47.68-.41.9-1.28.48-1.94Z"></path><path class="cls-2" d="m739.32,3644.94c-.42-.66-1.31-.87-2-.47-.68.41-.9,1.28-.48,1.94.42.66,1.31.87,2,.47.68-.41.9-1.28.48-1.94Z"></path><path class="cls-2" d="m1141.4,3712.96c-1.44-2.28-4.51-2.99-6.85-1.6-2.35,1.4-3.08,4.38-1.64,6.65,1.44,2.28,4.51,2.99,6.85,1.6,2.35-1.4,3.08-4.38,1.64-6.65Z"></path><path class="cls-2" d="m1453.31,3849.77c-.54-.85-1.69-1.12-2.57-.6-.88.52-1.16,1.64-.62,2.5.54.85,1.69,1.12,2.57.6.88-.52,1.16-1.64.62-2.5Z"></path><path class="cls-2" d="m1691.24,3843.39c-.57-.9-1.78-1.18-2.71-.63-.93.55-1.22,1.73-.65,2.63.57.9,1.78,1.18,2.71.63.93-.55,1.22-1.73.65-2.63Z"></path><path class="cls-2" d="m2138.7,3899.27c-.48-.76-1.5-1-2.28-.53-.78.47-1.03,1.46-.55,2.22s1.5,1,2.28.53c.78-.47,1.03-1.46.55-2.22Z"></path><path class="cls-2" d="m221.38,3316.45c-.51-.81-1.6-1.06-2.43-.57-.83.49-1.09,1.55-.58,2.36.51.81,1.6,1.06,2.43.57.83-.49,1.09-1.55.58-2.36Z"></path><path class="cls-2" d="m464.72,3470.96c-.99-1.57-3.1-2.06-4.71-1.1-1.61.96-2.12,3.01-1.13,4.57.99,1.57,3.1,2.06,4.71,1.1,1.61-.96,2.12-3.01,1.13-4.57Z"></path><path class="cls-2" d="m930.64,3597.03c-.69-1.09-2.16-1.43-3.28-.76-1.12.67-1.48,2.1-.79,3.19.69,1.09,2.16,1.43,3.28.76,1.12-.67,1.48-2.1.79-3.19Z"></path><path class="cls-2" d="m1249.05,3641.76c-.96-1.52-3-2-4.57-1.06-1.56.93-2.05,2.92-1.1,4.44.96,1.52,3,2,4.57,1.06,1.56-.93,2.05-2.92,1.1-4.44Z"></path><path class="cls-2" d="m1596.89,3637.46c-.57-.9-1.78-1.18-2.71-.63-.93.55-1.22,1.73-.65,2.63.57.9,1.78,1.18,2.71.63.93-.55,1.22-1.73.65-2.63Z"></path><path class="cls-2" d="m1936.88,3698.13c-1.08-1.71-3.38-2.24-5.14-1.2-1.76,1.05-2.31,3.28-1.23,4.99,1.08,1.71,3.38,2.24,5.14,1.2,1.76-1.05,2.31-3.28,1.23-4.99Z"></path><path class="cls-2" d="m2180.71,3863.23c-.39-.62-1.22-.81-1.86-.43-.64.38-.83,1.19-.45,1.8.39.62,1.22.81,1.86.43.64-.38.83-1.19.45-1.8Z"></path><path class="cls-2" d="m2236.03,3867.75c-.33-.52-1.03-.69-1.57-.37-.54.32-.71,1-.38,1.53.33.52,1.03.69,1.57.37.54-.32.71-1,.38-1.53Z"></path><path class="cls-2" d="m381.79,3278.65c-.54-.85-1.69-1.12-2.57-.6-.88.52-1.16,1.64-.62,2.5.54.85,1.69,1.12,2.57.6.88-.52,1.16-1.64.62-2.5Z"></path><path class="cls-2" d="m619.14,3258.16c-.87-1.38-2.72-1.81-4.14-.96-1.42.84-1.86,2.64-.99,4.02.87,1.38,2.72,1.81,4.14.96,1.42-.84,1.86-2.64.99-4.02Z"></path><path class="cls-2" d="m829.06,3416.58c-.51-.81-1.6-1.06-2.43-.57-.83.49-1.09,1.55-.58,2.36.51.81,1.6,1.06,2.43.57.83-.49,1.09-1.55.58-2.36Z"></path><path class="cls-2" d="m1355.46,3475.48c-1.02-1.61-3.19-2.12-4.85-1.13-1.66.99-2.18,3.1-1.16,4.71,1.02,1.61,3.19,2.12,4.85,1.13,1.66-.99,2.18-3.1,1.16-4.71Z"></path><path class="cls-2" d="m1517.26,3509.37c-.84-1.33-2.63-1.75-4-.93-1.37.81-1.8,2.55-.96,3.88.84,1.33,2.63,1.75,4,.93s1.8-2.55.96-3.88Z"></path><path class="cls-2" d="m1777.01,3588.08c-.48-.76-1.5-1-2.28-.53-.78.47-1.03,1.46-.55,2.22.48.76,1.5,1,2.28.53.78-.47,1.03-1.46.55-2.22Z"></path><path class="cls-2" d="m2035.62,3588.09c-1.23-1.95-3.85-2.56-5.85-1.36-2,1.19-2.63,3.74-1.4,5.68,1.23,1.95,3.85,2.56,5.85,1.36,2-1.19,2.63-3.74,1.4-5.68Z"></path><path class="cls-2" d="m162.1,3128.47c-.48-.76-1.5-1-2.28-.53-.78.47-1.03,1.46-.55,2.22.48.76,1.5,1,2.28.53.78-.47,1.03-1.46.55-2.22Z"></path><path class="cls-2" d="m448.31,3178.95c-.54-.85-1.69-1.12-2.57-.6-.88.52-1.16,1.64-.62,2.5.54.85,1.69,1.12,2.57.6.88-.52,1.16-1.64.62-2.5Z"></path><path class="cls-2" d="m616.43,3129.58c-1.35-2.14-4.22-2.81-6.42-1.5-2.2,1.31-2.89,4.1-1.54,6.24,1.35,2.14,4.22,2.81,6.42,1.5,2.2-1.31,2.89-4.1,1.54-6.24Z"></path><path class="cls-2" d="m1089.65,3218.89c-.66-1.04-2.06-1.37-3.14-.73-1.07.64-1.41,2.01-.75,3.05.66,1.04,2.06,1.37,3.14.73,1.08-.64,1.41-2.01.75-3.05Z"></path><path class="cls-2" d="m1186.81,3273.57c-.81-1.28-2.53-1.68-3.85-.9-1.32.79-1.73,2.46-.92,3.74.81,1.28,2.53,1.68,3.85.9s1.73-2.46.92-3.74Z"></path><path class="cls-2" d="m1418.45,3365.85c-.69-1.09-2.16-1.43-3.28-.76-1.12.67-1.48,2.1-.79,3.19.69,1.09,2.16,1.43,3.28.76,1.12-.67,1.48-2.1.79-3.19Z"></path><path class="cls-2" d="m1728.36,3383.15c-.54-.85-1.69-1.12-2.57-.6-.88.52-1.16,1.64-.62,2.5.54.85,1.69,1.12,2.57.6.88-.52,1.16-1.64.62-2.5Z"></path><path class="cls-2" d="m2005.79,3534.02c-1.2-1.9-3.75-2.49-5.71-1.33-1.95,1.16-2.57,3.65-1.37,5.55,1.2,1.9,3.75,2.49,5.71,1.33,1.95-1.16,2.57-3.65,1.37-5.55Z"></path><path class="cls-2" d="m191.35,3020.78c-.63-1-1.97-1.31-3-.7-1.03.61-1.35,1.91-.72,2.91.63,1,1.97,1.31,3,.7,1.03-.61,1.35-1.91.72-2.91Z"></path><path class="cls-2" d="m455.5,2943.45c-.63-1-1.97-1.31-3-.7-1.03.61-1.35,1.91-.72,2.91.63,1,1.97,1.31,3,.7,1.03-.61,1.35-1.91.72-2.91Z"></path><path class="cls-2" d="m712.54,3117.7c-1.62-2.56-5.07-3.37-7.71-1.8-2.64,1.57-3.47,4.92-1.85,7.49,1.62,2.56,5.07,3.37,7.71,1.8,2.64-1.57,3.47-4.92,1.85-7.49Z"></path><path class="cls-2" d="m899.92,3056.04c-1.53-2.42-4.79-3.18-7.28-1.7-2.49,1.48-3.27,4.65-1.75,7.07,1.53,2.42,4.79,3.18,7.28,1.7,2.49-1.48,3.27-4.65,1.75-7.07Z"></path><path class="cls-2" d="m1210.19,3107.55c-.57-.9-1.78-1.18-2.71-.63-.93.55-1.22,1.73-.65,2.63.57.9,1.78,1.18,2.71.63.93-.55,1.22-1.73.65-2.63Z"></path><path class="cls-2" d="m1630.72,3278.17c-.6-.95-1.88-1.25-2.85-.67-.98.58-1.28,1.82-.68,2.77.6.95,1.88,1.25,2.85.67.98-.58,1.28-1.82.68-2.77Z"></path><path class="cls-2" d="m1961.18,3311.66c-.72-1.14-2.25-1.5-3.43-.8-1.17.7-1.54,2.19-.82,3.33.72,1.14,2.25,1.5,3.43.8,1.17-.7,1.54-2.19.82-3.33Z"></path><path class="cls-2" d="m2075.5,3422.67c-.66-1.04-2.06-1.37-3.14-.73-1.07.64-1.41,2.01-.75,3.05.66,1.04,2.06,1.37,3.14.73,1.08-.64,1.41-2.01.75-3.05Z"></path><path class="cls-2" d="m226.3,2820.01c-.39-.62-1.22-.81-1.86-.43-.64.38-.83,1.19-.45,1.8.39.62,1.22.81,1.86.43.64-.38.83-1.19.45-1.8Z"></path><path class="cls-2" d="m426.13,2880.54c-.72-1.14-2.25-1.5-3.43-.8-1.17.7-1.54,2.19-.82,3.33.72,1.14,2.25,1.5,3.43.8,1.17-.7,1.54-2.19.82-3.33Z"></path><path class="cls-2" d="m773.32,2909.87c-1.02-1.61-3.19-2.12-4.85-1.13-1.66.99-2.18,3.1-1.16,4.71,1.02,1.61,3.19,2.12,4.85,1.13,1.66-.99,2.18-3.1,1.16-4.71Z"></path><path class="cls-2" d="m1083.24,3049.86c-.69-1.09-2.16-1.43-3.28-.76-1.12.67-1.48,2.1-.79,3.19.69,1.09,2.16,1.43,3.28.76,1.12-.67,1.48-2.1.79-3.19Z"></path><path class="cls-2" d="m1240.37,3012.83c-.54-.85-1.69-1.12-2.57-.6-.88.52-1.16,1.64-.62,2.5.54.85,1.69,1.12,2.57.6.88-.52,1.16-1.64.62-2.5Z"></path><path class="cls-2" d="m1688.09,3158.62c-.66-1.04-2.06-1.37-3.14-.73-1.08.64-1.41,2.01-.75,3.05.66,1.04,2.06,1.37,3.14.73,1.07-.64,1.41-2.01.75-3.05Z"></path><path class="cls-2" d="m1992.25,3139.22c-.78-1.23-2.44-1.62-3.71-.86-1.27.76-1.67,2.37-.89,3.6.78,1.23,2.44,1.62,3.71.86,1.27-.76,1.67-2.37.89-3.6Z"></path><path class="cls-2" d="m2144.04,3222.92c-.72-1.14-2.25-1.5-3.43-.8-1.17.7-1.54,2.19-.82,3.33.72,1.14,2.25,1.5,3.43.8,1.17-.7,1.54-2.19.82-3.33Z"></path><path class="cls-2" d="m214.39,2655.12c-.45-.71-1.41-.94-2.14-.5-.73.44-.96,1.37-.51,2.08.45.71,1.41.94,2.14.5.73-.44.96-1.37.51-2.08Z"></path><path class="cls-2" d="m376.91,2714.79c-.57-.9-1.78-1.18-2.71-.63-.93.55-1.22,1.73-.65,2.63.57.9,1.78,1.18,2.71.63.93-.55,1.22-1.73.65-2.63Z"></path><path class="cls-2" d="m664.8,2742.22c-1.17-1.85-3.66-2.43-5.57-1.3-1.91,1.13-2.5,3.56-1.34,5.41,1.17,1.85,3.66,2.43,5.57,1.3,1.91-1.13,2.5-3.56,1.34-5.41Z"></path><ellipse class="cls-2" cx="1124.49" cy="2842.61" rx="3.84" ry="3.73"></ellipse><path class="cls-2" d="m1478.52,2947.88c-.51-.81-1.6-1.06-2.43-.57-.83.49-1.09,1.55-.58,2.36.51.81,1.6,1.06,2.43.57.83-.49,1.09-1.55.58-2.36Z"></path><path class="cls-2" d="m1523.95,2964.81c-.51-.81-1.6-1.06-2.43-.57s-1.09,1.55-.58,2.36c.51.81,1.6,1.06,2.43.57.83-.49,1.09-1.55.58-2.36Z"></path><path class="cls-2" d="m2074.07,3025.47c-.75-1.19-2.35-1.56-3.57-.83-1.22.73-1.6,2.28-.86,3.47.75,1.19,2.35,1.56,3.57.83,1.22-.73,1.6-2.28.86-3.47Z"></path><path class="cls-2" d="m173.45,2496.46c-.42-.66-1.31-.87-2-.47-.68.41-.9,1.28-.48,1.94.42.66,1.31.87,2,.47.68-.41.9-1.28.48-1.94Z"></path><path class="cls-2" d="m384.89,2619.39c-.75-1.19-2.35-1.56-3.57-.83-1.22.73-1.6,2.28-.86,3.47.75,1.19,2.35,1.56,3.57.83,1.22-.73,1.6-2.28.86-3.47Z"></path><path class="cls-2" d="m906.74,2611.94c-.9-1.42-2.82-1.87-4.28-1-1.47.87-1.93,2.74-1.03,4.16.9,1.42,2.82,1.87,4.28,1,1.47-.87,1.93-2.74,1.03-4.16Z"></path><path class="cls-2" d="m1191.21,2721.32c-1.53-2.42-4.79-3.18-7.28-1.7-2.49,1.48-3.27,4.65-1.75,7.07,1.53,2.42,4.79,3.18,7.28,1.7,2.49-1.48,3.27-4.65,1.75-7.07Z"></path><path class="cls-2" d="m1298.7,2813.51c-.87-1.38-2.72-1.81-4.14-.96-1.42.84-1.86,2.64-.99,4.02.87,1.38,2.72,1.81,4.14.96,1.42-.84,1.86-2.64.99-4.02Z"></path><path class="cls-2" d="m1630.86,2867.24c-.54-.85-1.69-1.12-2.57-.6-.88.52-1.16,1.64-.62,2.5.54.85,1.69,1.12,2.57.6.88-.52,1.16-1.64.62-2.5Z"></path><path class="cls-2" d="m1902.17,2899.79c-1.35-2.14-4.22-2.81-6.42-1.5-2.2,1.31-2.89,4.1-1.54,6.24,1.35,2.14,4.22,2.81,6.42,1.5,2.2-1.31,2.89-4.1,1.54-6.24Z"></path><path class="cls-2" d="m2179.94,3007.9c-.54-.85-1.69-1.12-2.57-.6-.88.52-1.16,1.64-.62,2.5s1.69,1.12,2.57.6c.88-.52,1.16-1.64.62-2.5Z"></path><path class="cls-2" d="m357.84,2465.03c-.6-.95-1.88-1.25-2.85-.67-.98.58-1.28,1.82-.68,2.77.6.95,1.88,1.25,2.85.67.98-.58,1.28-1.82.68-2.77Z"></path><ellipse class="cls-2" cx="438.45" cy="2479.78" rx="3.84" ry="3.73"></ellipse><path class="cls-2" d="m899.51,2529.77c-1.2-1.9-3.75-2.49-5.71-1.33-1.95,1.16-2.57,3.65-1.37,5.55,1.2,1.9,3.75,2.49,5.71,1.33,1.95-1.16,2.57-3.65,1.37-5.55Z"></path><path class="cls-2" d="m1231.16,2656.5c-1.68-2.66-5.26-3.49-7.99-1.86-2.74,1.63-3.59,5.11-1.92,7.76,1.68,2.66,5.26,3.49,7.99,1.86,2.74-1.63,3.59-5.11,1.92-7.76Z"></path><path class="cls-2" d="m1457.03,2681.95c-.81-1.28-2.53-1.68-3.85-.9s-1.73,2.46-.92,3.74c.81,1.28,2.53,1.68,3.85.9,1.32-.79,1.73-2.46.92-3.74Z"></path><path class="cls-2" d="m1679.81,2707.99c-.81-1.28-2.53-1.68-3.85-.9-1.32.79-1.73,2.46-.92,3.74s2.53,1.68,3.85.9c1.32-.79,1.73-2.46.92-3.74Z"></path><path class="cls-2" d="m2122.4,2850.72c-1.56-2.47-4.88-3.24-7.42-1.73-2.54,1.51-3.34,4.74-1.78,7.21,1.56,2.47,4.88,3.24,7.42,1.73,2.54-1.51,3.34-4.74,1.78-7.21Z"></path><path class="cls-2" d="m2239.48,2741.76c-.9-1.42-2.82-1.87-4.28-1-1.47.87-1.93,2.74-1.03,4.16.9,1.42,2.82,1.87,4.28,1,1.47-.87,1.93-2.74,1.03-4.16Z"></path><path class="cls-2" d="m359.5,2276.36c-.81-1.28-2.53-1.68-3.85-.9-1.32.79-1.73,2.46-.92,3.74.81,1.28,2.53,1.68,3.85.9,1.32-.79,1.73-2.46.92-3.74Z"></path><path class="cls-2" d="m449.35,2286.15c-1.2-1.9-3.75-2.49-5.71-1.33-1.95,1.16-2.57,3.65-1.37,5.55,1.2,1.9,3.75,2.49,5.71,1.33,1.95-1.16,2.57-3.65,1.37-5.55Z"></path><path class="cls-2" d="m910.91,2421.15c-.96-1.52-3-2-4.57-1.06-1.56.93-2.05,2.92-1.1,4.44.96,1.52,3,2,4.57,1.06,1.56-.93,2.05-2.92,1.1-4.44Z"></path><path class="cls-2" d="m1246.09,2465.55c-.84-1.33-2.63-1.75-4-.93-1.37.81-1.8,2.55-.96,3.88s2.63,1.75,4,.93c1.37-.81,1.8-2.55.96-3.88Z"></path><path class="cls-2" d="m1505.94,2444.83c-.63-1-1.97-1.31-3-.7-1.03.61-1.35,1.91-.72,2.91.63,1,1.97,1.31,3,.7,1.03-.61,1.35-1.91.72-2.91Z"></path><path class="cls-2" d="m1646.77,2604.4c-.9-1.42-2.82-1.87-4.28-1-1.47.87-1.93,2.74-1.03,4.16.9,1.42,2.82,1.87,4.28,1,1.47-.87,1.93-2.74,1.03-4.16Z"></path><path class="cls-2" d="m1948.04,2553.74c-.93-1.47-2.91-1.93-4.42-1.03-1.51.9-1.99,2.83-1.06,4.3.93,1.47,2.91,1.93,4.42,1.03,1.51-.9,1.99-2.83,1.06-4.3Z"></path><path class="cls-2" d="m143.34,2060.13c-1.05-1.66-3.28-2.18-5-1.16-1.71,1.02-2.25,3.19-1.2,4.85,1.05,1.66,3.28,2.18,5,1.16,1.71-1.02,2.25-3.19,1.2-4.85Z"></path><path class="cls-2" d="m246.5,2161.46c-.93-1.47-2.91-1.93-4.42-1.03-1.51.9-1.99,2.83-1.06,4.3.93,1.47,2.91,1.93,4.42,1.03,1.51-.9,1.99-2.83,1.06-4.3Z"></path><path class="cls-2" d="m445.06,2187.92c-1.02-1.61-3.19-2.12-4.85-1.13-1.66.99-2.18,3.1-1.16,4.71,1.02,1.61,3.19,2.12,4.85,1.13,1.66-.99,2.18-3.1,1.16-4.71Z"></path><path class="cls-2" d="m836.88,2223.61c-.72-1.14-2.25-1.5-3.43-.8-1.17.7-1.54,2.19-.82,3.33.72,1.14,2.25,1.5,3.43.8,1.17-.7,1.54-2.19.82-3.33Z"></path><path class="cls-2" d="m1128.13,2320.61c-.87-1.38-2.72-1.81-4.14-.96-1.42.84-1.86,2.64-.99,4.02.87,1.38,2.72,1.81,4.14.96,1.42-.84,1.86-2.64.99-4.02Z"></path><path class="cls-2" d="m1349.85,2272.87c-.78-1.23-2.44-1.62-3.71-.86-1.27.76-1.67,2.37-.89,3.6.78,1.23,2.44,1.62,3.71.86,1.27-.76,1.67-2.37.89-3.6Z"></path><path class="cls-2" d="m1866.5,2474.64c-.81-1.28-2.53-1.68-3.85-.9-1.32.79-1.73,2.46-.92,3.74.81,1.28,2.53,1.68,3.85.9,1.32-.79,1.73-2.46.92-3.74Z"></path><path class="cls-2" d="m1971.59,2475.99c-.93-1.47-2.91-1.93-4.42-1.03-1.51.9-1.99,2.83-1.06,4.3.93,1.47,2.91,1.93,4.42,1.03,1.51-.9,1.99-2.83,1.06-4.3Z"></path><path class="cls-2" d="m25.6,1893.69c-1.14-1.8-3.57-2.37-5.42-1.26-1.86,1.11-2.44,3.46-1.3,5.27,1.14,1.8,3.57,2.37,5.42,1.26,1.86-1.11,2.44-3.46,1.3-5.27Z"></path><path class="cls-2" d="m465.12,1969.79c-.51-.81-1.6-1.06-2.43-.57-.83.49-1.09,1.55-.58,2.36.51.81,1.6,1.06,2.43.57.83-.49,1.09-1.55.58-2.36Z"></path><path class="cls-2" d="m766.36,2010.38c-.63-1-1.97-1.31-3-.7-1.03.61-1.35,1.91-.72,2.91.63,1,1.97,1.31,3,.7,1.03-.61,1.35-1.91.72-2.91Z"></path><path class="cls-2" d="m997.62,2128.32c-1.2-1.9-3.75-2.49-5.71-1.33-1.95,1.16-2.57,3.65-1.37,5.55,1.2,1.9,3.75,2.49,5.71,1.33,1.95-1.16,2.57-3.65,1.37-5.55Z"></path><path class="cls-2" d="m1191.71,2150.87c-.99-1.57-3.1-2.06-4.71-1.1-1.61.96-2.12,3.01-1.13,4.57.99,1.57,3.1,2.06,4.71,1.1,1.61-.96,2.12-3.01,1.13-4.57Z"></path><path class="cls-2" d="m1818.32,2313.59c-.81-1.28-2.53-1.68-3.85-.9-1.32.79-1.73,2.46-.92,3.74.81,1.28,2.53,1.68,3.85.9,1.32-.79,1.73-2.46.92-3.74Z"></path><path class="cls-2" d="m2053.2,2371.95c-.78-1.23-2.44-1.62-3.71-.86-1.27.76-1.67,2.37-.89,3.6.78,1.23,2.44,1.62,3.71.86,1.27-.76,1.67-2.37.89-3.6Z"></path><path class="cls-2" d="m211.8,1732.66c-.54-.85-1.69-1.12-2.57-.6-.88.52-1.16,1.64-.62,2.5.54.85,1.69,1.12,2.57.6.88-.52,1.16-1.64.62-2.5Z"></path><path class="cls-2" d="m320.02,1855.41c-.51-.81-1.6-1.06-2.43-.57-.83.49-1.09,1.55-.58,2.36.51.81,1.6,1.06,2.43.57.83-.49,1.09-1.55.58-2.36Z"></path><path class="cls-2" d="m550.74,1931.52c-.75-1.19-2.35-1.56-3.57-.83-1.22.73-1.6,2.28-.86,3.47.75,1.19,2.35,1.56,3.57.83,1.22-.73,1.6-2.28.86-3.47Z"></path><path class="cls-2" d="m986.98,1933.26c-.9-1.42-2.82-1.87-4.28-1-1.47.87-1.93,2.74-1.03,4.16.9,1.42,2.82,1.87,4.28,1,1.47-.87,1.93-2.74,1.03-4.16Z"></path><path class="cls-2" d="m1336.08,1968.43c-2.07-3.28-6.48-4.3-9.85-2.29-3.37,2.01-4.43,6.29-2.36,9.57,2.07,3.28,6.48,4.3,9.85,2.29,3.37-2.01,4.43-6.29,2.36-9.57Z"></path><path class="cls-2" d="m1513.64,2138.09c-1.17-1.85-3.66-2.43-5.57-1.3-1.91,1.13-2.5,3.56-1.34,5.41,1.17,1.85,3.66,2.43,5.57,1.3,1.91-1.13,2.5-3.56,1.34-5.41Z"></path><path class="cls-2" d="m1947.05,2206.95c-.93-1.47-2.91-1.93-4.42-1.03-1.51.9-1.99,2.83-1.06,4.3.93,1.47,2.91,1.93,4.42,1.03,1.51-.9,1.99-2.83,1.06-4.3Z"></path><path class="cls-2" d="m2154.47,2189.05c-.63-1-1.97-1.31-3-.7-1.03.61-1.35,1.91-.72,2.91.63,1,1.97,1.31,3,.7,1.03-.61,1.35-1.91.72-2.91Z"></path><path class="cls-2" d="m199.13,1713.33c-.51-.81-1.6-1.06-2.43-.57-.83.49-1.09,1.55-.58,2.36.51.81,1.6,1.06,2.43.57.83-.49,1.09-1.55.58-2.36Z"></path><path class="cls-2" d="m376.84,1665.4c-.51-.81-1.6-1.06-2.43-.57-.83.49-1.09,1.55-.58,2.36.51.81,1.6,1.06,2.43.57.83-.49,1.09-1.55.58-2.36Z"></path><path class="cls-2" d="m696.82,1750.81c-1.08-1.71-3.38-2.24-5.14-1.2-1.76,1.05-2.31,3.28-1.23,4.99,1.08,1.71,3.38,2.24,5.14,1.2,1.76-1.05,2.31-3.28,1.23-4.99Z"></path><path class="cls-2" d="m878.42,1850.41c-.87-1.38-2.72-1.81-4.14-.96-1.42.84-1.86,2.64-.99,4.02.87,1.38,2.72,1.81,4.14.96,1.42-.84,1.86-2.64.99-4.02Z"></path><path class="cls-2" d="m1185.18,1800.74c-2.22-3.51-6.95-4.61-10.56-2.46-3.62,2.15-4.75,6.75-2.53,10.26,2.22,3.51,6.95,4.61,10.56,2.46,3.62-2.15,4.75-6.75,2.53-10.26Z"></path><path class="cls-2" d="m1731.33,1923.08c-1.53-2.42-4.79-3.18-7.28-1.7-2.49,1.48-3.27,4.65-1.75,7.07,1.53,2.42,4.79,3.18,7.28,1.7,2.49-1.48,3.27-4.65,1.75-7.07Z"></path><path class="cls-2" d="m1895.34,2032.51c-1.71-2.71-5.35-3.55-8.14-1.9-2.79,1.66-3.66,5.2-1.95,7.9,1.71,2.71,5.35,3.55,8.14,1.9,2.79-1.66,3.66-5.2,1.95-7.9Z"></path><path class="cls-2" d="m2106.96,2119.43c-.84-1.33-2.63-1.75-4-.93-1.37.81-1.8,2.55-.96,3.88.84,1.33,2.63,1.75,4,.93s1.8-2.55.96-3.88Z"></path><path class="cls-2" d="m132.06,1499.97c-.39-.62-1.22-.81-1.86-.43-.64.38-.83,1.19-.45,1.8.39.62,1.22.81,1.86.43.64-.38.83-1.19.45-1.8Z"></path><path class="cls-2" d="m414.62,1498.76c-.75-1.19-2.35-1.56-3.57-.83-1.22.73-1.6,2.28-.86,3.47.75,1.19,2.35,1.56,3.57.83,1.22-.73,1.6-2.28.86-3.47Z"></path><path class="cls-2" d="m856.7,1689.73c-.81-1.28-2.53-1.68-3.85-.9-1.32.79-1.73,2.46-.92,3.74.81,1.28,2.53,1.68,3.85.9,1.32-.79,1.73-2.46.92-3.74Z"></path><path class="cls-2" d="m999.22,1704.62c-1.23-1.95-3.85-2.56-5.85-1.36-2,1.19-2.63,3.74-1.4,5.68,1.23,1.95,3.85,2.56,5.85,1.36,2-1.19,2.63-3.74,1.4-5.68Z"></path><path class="cls-2" d="m1436.14,1831.96c-1.59-2.52-4.97-3.3-7.56-1.76s-3.4,4.83-1.81,7.35c1.59,2.52,4.97,3.3,7.56,1.76,2.59-1.54,3.4-4.83,1.81-7.35Z"></path><path class="cls-2" d="m1632.06,1872.65c-1.83-2.9-5.73-3.8-8.71-2.03-2.98,1.78-3.92,5.56-2.09,8.46,1.83,2.9,5.73,3.8,8.71,2.03,2.98-1.78,3.92-5.56,2.09-8.46Z"></path><path class="cls-2" d="m1830.43,1907.03c-1.95-3.09-6.1-4.05-9.28-2.16-3.18,1.89-4.17,5.93-2.23,9.01,1.95,3.09,6.1,4.05,9.28,2.16,3.18-1.89,4.17-5.93,2.23-9.01Z"></path><path class="cls-2" d="m2148.41,1981.07c-.93-1.47-2.91-1.93-4.42-1.03-1.51.9-1.99,2.83-1.06,4.3.93,1.47,2.91,1.93,4.42,1.03,1.51-.9,1.99-2.83,1.06-4.3Z"></path><path class="cls-2" d="m278.49,1448.59c-.54-.85-1.69-1.12-2.57-.6-.88.52-1.16,1.64-.62,2.5.54.85,1.69,1.12,2.57.6s1.16-1.64.62-2.5Z"></path><path class="cls-2" d="m339.79,1353.04c-.72-1.14-2.25-1.5-3.43-.8-1.17.7-1.54,2.19-.82,3.33.72,1.14,2.25,1.5,3.43.8,1.17-.7,1.54-2.19.82-3.33Z"></path><path class="cls-2" d="m902.37,1483.02c-1.02-1.61-3.19-2.12-4.85-1.13-1.66.99-2.18,3.1-1.16,4.71,1.02,1.61,3.19,2.12,4.85,1.13,1.66-.99,2.18-3.1,1.16-4.71Z"></path><path class="cls-2" d="m1192.31,1588.08c-1.35-2.14-4.22-2.81-6.42-1.5-2.2,1.31-2.89,4.1-1.54,6.24,1.35,2.14,4.22,2.81,6.42,1.5,2.2-1.31,2.89-4.1,1.54-6.24Z"></path><path class="cls-2" d="m1461.22,1654.83c-1.8-2.85-5.63-3.74-8.56-2-2.93,1.75-3.85,5.47-2.05,8.32,1.8,2.85,5.63,3.74,8.56,2,2.93-1.75,3.85-5.47,2.05-8.32Z"></path><path class="cls-2" d="m1613.08,1654.66c-1.23-1.95-3.85-2.56-5.85-1.36-2,1.19-2.63,3.74-1.4,5.68,1.23,1.95,3.85,2.56,5.85,1.36,2-1.19,2.63-3.74,1.4-5.68Z"></path><path class="cls-2" d="m2060.51,1790.73c-.69-1.09-2.16-1.43-3.28-.76-1.12.67-1.48,2.1-.79,3.19.69,1.09,2.16,1.43,3.28.76,1.12-.67,1.48-2.1.79-3.19Z"></path><path class="cls-2" d="m2184.74,1751.37c-.69-1.09-2.16-1.43-3.28-.76-1.12.67-1.48,2.1-.79,3.19.69,1.09,2.16,1.43,3.28.76,1.12-.67,1.48-2.1.79-3.19Z"></path><path class="cls-2" d="m14.67,1170.99c-1.14-1.8-3.57-2.37-5.42-1.26-1.86,1.11-2.44,3.46-1.3,5.27,1.14,1.8,3.57,2.37,5.42,1.26,1.86-1.11,2.44-3.46,1.3-5.27Z"></path><path class="cls-2" d="m285.06,1232.91c-.72-1.14-2.25-1.5-3.43-.8-1.17.7-1.54,2.19-.82,3.33.72,1.14,2.25,1.5,3.43.8,1.17-.7,1.54-2.19.82-3.33Z"></path><path class="cls-2" d="m517.34,1305.55c-.78-1.23-2.44-1.62-3.71-.86-1.27.76-1.67,2.37-.89,3.6.78,1.23,2.44,1.62,3.71.86,1.27-.76,1.67-2.37.89-3.6Z"></path><path class="cls-2" d="m678.23,1255.46c-1.35-2.14-4.22-2.81-6.42-1.5-2.2,1.31-2.89,4.1-1.54,6.24,1.35,2.14,4.22,2.81,6.42,1.5,2.2-1.31,2.89-4.1,1.54-6.24Z"></path><path class="cls-2" d="m947.46,1370.63c-1.2-1.9-3.75-2.49-5.71-1.33-1.95,1.16-2.57,3.65-1.37,5.55,1.2,1.9,3.75,2.49,5.71,1.33,1.95-1.16,2.57-3.65,1.37-5.55Z"></path><path class="cls-2" d="m1217.2,1507.38c-1.41-2.23-4.41-2.93-6.71-1.56-2.3,1.37-3.02,4.28-1.61,6.52,1.41,2.23,4.41,2.93,6.71,1.56,2.3-1.37,3.02-4.28,1.61-6.52Z"></path><path class="cls-2" d="m1584.96,1463.39c-.84-1.33-2.63-1.75-4-.93s-1.8,2.55-.96,3.88c.84,1.33,2.63,1.75,4,.93,1.37-.81,1.8-2.55.96-3.88Z"></path><path class="cls-2" d="m1950.76,1530.74c-.75-1.19-2.35-1.56-3.57-.83s-1.6,2.28-.86,3.47,2.35,1.56,3.57.83c1.22-.73,1.6-2.28.86-3.47Z"></path><path class="cls-2" d="m2243.81,1711.21c-.66-1.04-2.06-1.37-3.14-.73-1.07.64-1.41,2.01-.75,3.05.66,1.04,2.06,1.37,3.14.73,1.08-.64,1.41-2.01.75-3.05Z"></path><path class="cls-2" d="m323,1149.15c-.57-.9-1.78-1.18-2.71-.63-.93.55-1.22,1.73-.65,2.63.57.9,1.78,1.18,2.71.63.93-.55,1.22-1.73.65-2.63Z"></path><path class="cls-2" d="m655.32,1158.7c-1.14-1.8-3.57-2.37-5.42-1.26-1.86,1.11-2.44,3.46-1.3,5.27,1.14,1.8,3.57,2.37,5.42,1.26,1.86-1.11,2.44-3.46,1.3-5.27Z"></path><path class="cls-2" d="m972.2,1213.83c-1.62-2.56-5.07-3.37-7.71-1.8-2.64,1.57-3.47,4.92-1.85,7.49,1.62,2.56,5.07,3.37,7.71,1.8,2.64-1.57,3.47-4.92,1.85-7.49Z"></path><path class="cls-2" d="m1033.09,1232.98c-1.56-2.47-4.88-3.24-7.42-1.73-2.54,1.51-3.34,4.74-1.78,7.21,1.56,2.47,4.88,3.24,7.42,1.73,2.54-1.51,3.34-4.74,1.78-7.21Z"></path><path class="cls-2" d="m1286.81,1374.51c-1.26-1.99-3.94-2.62-5.99-1.4-2.05,1.22-2.7,3.83-1.44,5.82,1.26,1.99,3.94,2.62,5.99,1.4,2.05-1.22,2.7-3.83,1.44-5.82Z"></path><path class="cls-2" d="m1570.88,1415.68c-.72-1.14-2.25-1.5-3.43-.8-1.17.7-1.54,2.19-.82,3.33.72,1.14,2.25,1.5,3.43.8,1.17-.7,1.54-2.19.82-3.33Z"></path><path class="cls-2" d="m1974.51,1519.68c-.72-1.14-2.25-1.5-3.43-.8-1.17.7-1.54,2.19-.82,3.33.72,1.14,2.25,1.5,3.43.8,1.17-.7,1.54-2.19.82-3.33Z"></path><path class="cls-2" d="m372.5,1020.98c-.54-.85-1.69-1.12-2.57-.6-.88.52-1.16,1.64-.62,2.5.54.85,1.69,1.12,2.57.6.88-.52,1.16-1.64.62-2.5Z"></path><path class="cls-2" d="m639.81,1073.4c-1.08-1.71-3.38-2.24-5.14-1.2-1.76,1.05-2.31,3.28-1.23,4.99,1.08,1.71,3.38,2.24,5.14,1.2,1.76-1.05,2.31-3.28,1.23-4.99Z"></path><path class="cls-2" d="m837.61,1034.71c-1.2-1.9-3.75-2.49-5.71-1.33-1.95,1.16-2.57,3.65-1.37,5.55,1.2,1.9,3.75,2.49,5.71,1.33,1.95-1.16,2.57-3.65,1.37-5.55Z"></path><path class="cls-2" d="m1242.99,1141.4c-.87-1.38-2.72-1.81-4.14-.96-1.42.84-1.86,2.64-.99,4.02.87,1.38,2.72,1.81,4.14.96,1.42-.84,1.86-2.64.99-4.02Z"></path><path class="cls-2" d="m1494.56,1148.23c-.99-1.57-3.1-2.06-4.71-1.1-1.61.96-2.12,3.01-1.13,4.57.99,1.57,3.1,2.06,4.71,1.1,1.61-.96,2.12-3.01,1.13-4.58Z"></path><path class="cls-2" d="m1676.67,1203.83c-.72-1.14-2.25-1.5-3.43-.8-1.17.7-1.54,2.19-.82,3.33.72,1.14,2.25,1.5,3.43.8,1.17-.7,1.54-2.19.82-3.33Z"></path><path class="cls-2" d="m2128.01,1303.4c-.6-.95-1.88-1.25-2.85-.67-.98.58-1.28,1.82-.68,2.77.6.95,1.88,1.25,2.85.67.98-.58,1.28-1.82.68-2.77Z"></path><path class="cls-2" d="m234.54,822.51c-.78-1.23-2.44-1.62-3.71-.86-1.27.76-1.67,2.37-.89,3.6.78,1.23,2.44,1.62,3.71.86,1.27-.76,1.67-2.37.89-3.6Z"></path><path class="cls-2" d="m723.82,951.06c-.96-1.52-3-2-4.57-1.06-1.56.93-2.05,2.92-1.1,4.44.96,1.52,3,2,4.57,1.06,1.56-.93,2.05-2.92,1.1-4.44Z"></path><path class="cls-2" d="m729.31,949.21c-.96-1.52-3-2-4.57-1.06-1.56.93-2.05,2.92-1.1,4.44.96,1.52,3,2,4.57,1.06,1.56-.93,2.05-2.92,1.1-4.44Z"></path><path class="cls-2" d="m1044.9,966.29c-1.23-1.95-3.85-2.56-5.85-1.36-2,1.19-2.63,3.74-1.4,5.68,1.23,1.95,3.85,2.56,5.85,1.36,2-1.19,2.63-3.74,1.4-5.68Z"></path><path class="cls-2" d="m1333.16,1062.98c-.6-.95-1.88-1.25-2.85-.67-.98.58-1.28,1.82-.68,2.77.6.95,1.88,1.25,2.85.67.98-.58,1.28-1.82.68-2.77Z"></path><path class="cls-2" d="m1759.25,1182.37c-.72-1.14-2.25-1.5-3.43-.8-1.17.7-1.54,2.19-.82,3.33.72,1.14,2.25,1.5,3.43.8,1.17-.7,1.54-2.19.82-3.33Z"></path><path class="cls-2" d="m1955.1,1106.56c-.57-.9-1.78-1.18-2.71-.63-.93.55-1.22,1.73-.65,2.63.57.9,1.78,1.18,2.71.63.93-.55,1.22-1.73.65-2.63Z"></path><path class="cls-2" d="m196.43,705.13c-.6-.95-1.88-1.25-2.85-.67-.98.58-1.28,1.82-.68,2.77.6.95,1.88,1.25,2.85.67.98-.58,1.28-1.82.68-2.77Z"></path><path class="cls-2" d="m536.51,688.25c-1.02-1.61-3.19-2.12-4.85-1.13-1.66.99-2.18,3.1-1.16,4.71,1.02,1.61,3.19,2.12,4.85,1.13,1.66-.99,2.18-3.1,1.16-4.71Z"></path><path class="cls-2" d="m911.4,820.23c-.72-1.14-2.25-1.5-3.43-.8-1.17.7-1.54,2.19-.82,3.33.72,1.14,2.25,1.5,3.43.8,1.17-.7,1.54-2.19.82-3.33Z"></path><path class="cls-2" d="m1146.04,781.1c-1.08-1.71-3.38-2.24-5.14-1.2-1.76,1.05-2.31,3.28-1.23,4.99,1.08,1.71,3.38,2.24,5.14,1.2,1.76-1.05,2.31-3.28,1.23-4.99Z"></path><path class="cls-2" d="m1606.53,921.18c-.69-1.09-2.16-1.43-3.28-.76-1.12.67-1.48,2.1-.79,3.19.69,1.09,2.16,1.43,3.28.76,1.12-.67,1.48-2.1.79-3.19Z"></path><path class="cls-2" d="m1777.93,986.61c-.72-1.14-2.25-1.5-3.43-.8-1.17.7-1.54,2.19-.82,3.33.72,1.14,2.25,1.5,3.43.8,1.17-.7,1.54-2.19.82-3.33Z"></path><path class="cls-2" d="m2078.14,1072.6c-.57-.9-1.78-1.18-2.71-.63-.93.55-1.22,1.73-.65,2.63.57.9,1.78,1.18,2.71.63.93-.55,1.22-1.73.65-2.63Z"></path><path class="cls-2" d="m132.8,438.46c-.39-.62-1.22-.81-1.86-.43-.64.38-.83,1.19-.45,1.8.39.62,1.22.81,1.86.43.64-.38.83-1.19.45-1.8Z"></path><path class="cls-2" d="m255.65,476.29c-.48-.76-1.5-1-2.28-.53-.78.47-1.03,1.46-.55,2.22.48.76,1.5,1,2.28.53.78-.47,1.03-1.46.55-2.22Z"></path><path class="cls-2" d="m780.21,570.2c-1.08-1.71-3.38-2.24-5.14-1.2-1.76,1.05-2.31,3.28-1.23,4.99,1.08,1.71,3.38,2.24,5.14,1.2,1.76-1.05,2.31-3.28,1.23-4.99Z"></path><path class="cls-2" d="m1096.6,628.13c-.99-1.57-3.1-2.06-4.71-1.1-1.61.96-2.12,3.01-1.13,4.57.99,1.57,3.1,2.06,4.71,1.1,1.61-.96,2.12-3.01,1.13-4.57Z"></path><path class="cls-2" d="m1301.16,672.17c-1.05-1.66-3.28-2.18-5-1.16-1.71,1.02-2.25,3.19-1.2,4.85,1.05,1.66,3.28,2.18,5,1.16,1.71-1.02,2.25-3.19,1.2-4.85Z"></path><path class="cls-2" d="m1468.89,774.37c-.57-.9-1.78-1.18-2.71-.63s-1.22,1.73-.65,2.63c.57.9,1.78,1.18,2.71.63.93-.55,1.22-1.73.65-2.63Z"></path><path class="cls-2" d="m1915.79,852.78c-.87-1.38-2.72-1.81-4.14-.96-1.42.84-1.86,2.64-.99,4.02.87,1.38,2.72,1.81,4.14.96s1.86-2.64.99-4.02Z"></path><path class="cls-2" d="m2115.74,876.04c-.57-.9-1.78-1.18-2.71-.63-.93.55-1.22,1.73-.65,2.63.57.9,1.78,1.18,2.71.63.93-.55,1.22-1.73.65-2.63Z"></path><path class="cls-2" d="m227.1,320.26c-.51-.81-1.6-1.06-2.43-.57-.83.49-1.09,1.55-.58,2.36.51.81,1.6,1.06,2.43.57.83-.49,1.09-1.55.58-2.36Z"></path><path class="cls-2" d="m294.44,411.85c-.54-.85-1.69-1.12-2.57-.6-.88.52-1.16,1.64-.62,2.5.54.85,1.69,1.12,2.57.6.88-.52,1.16-1.64.62-2.5Z"></path><path class="cls-2" d="m831.07,472.05c-1.14-1.8-3.57-2.37-5.42-1.26-1.86,1.11-2.44,3.46-1.3,5.27,1.14,1.8,3.57,2.37,5.42,1.26,1.86-1.11,2.44-3.46,1.3-5.27Z"></path><path class="cls-2" d="m1020.84,508.04c-1.35-2.14-4.22-2.81-6.42-1.5-2.2,1.31-2.89,4.1-1.54,6.24,1.35,2.14,4.22,2.81,6.42,1.5,2.2-1.31,2.89-4.1,1.54-6.24Z"></path><path class="cls-2" d="m1325.6,576.42c-1.17-1.85-3.66-2.43-5.57-1.3-1.91,1.13-2.5,3.56-1.34,5.41,1.17,1.85,3.66,2.43,5.57,1.3,1.91-1.13,2.5-3.56,1.34-5.41Z"></path><path class="cls-2" d="m1577.87,648.62c-.6-.95-1.88-1.25-2.85-.67-.98.58-1.28,1.82-.68,2.77.6.95,1.88,1.25,2.85.67.98-.58,1.28-1.82.68-2.77Z"></path><path class="cls-2" d="m1845.3,716.78c-.72-1.14-2.25-1.5-3.43-.8-1.17.7-1.54,2.19-.82,3.33.72,1.14,2.25,1.5,3.43.8,1.17-.7,1.54-2.19.82-3.33Z"></path><path class="cls-2" d="m2091.37,765.71c-.57-.9-1.78-1.18-2.71-.63-.93.55-1.22,1.73-.65,2.63.57.9,1.78,1.18,2.71.63.93-.55,1.22-1.73.65-2.63Z"></path><path class="cls-2" d="m263.18,241.02c-.72-1.14-2.25-1.5-3.43-.8-1.17.7-1.54,2.19-.82,3.33.72,1.14,2.25,1.5,3.43.8,1.17-.7,1.54-2.19.82-3.33Z"></path><path class="cls-2" d="m432.69,296.54c-.9-1.42-2.82-1.87-4.28-1-1.47.87-1.93,2.74-1.03,4.16.9,1.42,2.82,1.87,4.28,1,1.47-.87,1.93-2.74,1.03-4.16Z"></path><path class="cls-2" d="m752.65,267.67c-1.62-2.56-5.07-3.37-7.71-1.8-2.64,1.57-3.47,4.92-1.85,7.49,1.62,2.56,5.07,3.37,7.71,1.8,2.64-1.57,3.47-4.92,1.85-7.49Z"></path><path class="cls-2" d="m1004.27,368.71c-1.2-1.9-3.75-2.49-5.71-1.33-1.95,1.16-2.57,3.65-1.37,5.55,1.2,1.9,3.75,2.49,5.71,1.33,1.95-1.16,2.57-3.65,1.37-5.55Z"></path><path class="cls-2" d="m1312.04,414.57c-.93-1.47-2.91-1.93-4.42-1.03-1.51.9-1.99,2.83-1.06,4.3.93,1.47,2.91,1.93,4.42,1.03,1.51-.9,1.99-2.83,1.06-4.3Z"></path><path class="cls-2" d="m1611.65,480.56c-.48-.76-1.5-1-2.28-.53-.78.47-1.03,1.46-.55,2.22.48.76,1.5,1,2.28.53.78-.47,1.03-1.46.55-2.22Z"></path><path class="cls-2" d="m1872.61,611.05c-.57-.9-1.78-1.18-2.71-.63-.93.55-1.22,1.73-.65,2.63.57.9,1.78,1.18,2.71.63.93-.55,1.22-1.73.65-2.63Z"></path><path class="cls-2" d="m2298.87,650.5c-.39-.62-1.22-.81-1.86-.43-.64.38-.83,1.19-.45,1.8.39.62,1.22.81,1.86.43.64-.38.83-1.19.45-1.8Z"></path><path class="cls-2" d="m223.77,70.23c-.82.49-1.31,1.31-1.41,2.17l5.27-1.56c-.94-1.08-2.58-1.37-3.86-.61Z"></path><path class="cls-2" d="m397.29,140.84c-.93-1.47-2.91-1.93-4.42-1.03-1.51.9-1.99,2.83-1.06,4.3.93,1.47,2.91,1.93,4.42,1.03,1.51-.9,1.99-2.83,1.06-4.3Z"></path><path class="cls-2" d="m846.59,137.05c-.78-1.23-2.44-1.62-3.71-.86-1.27.76-1.67,2.37-.89,3.6.78,1.23,2.44,1.62,3.71.86,1.27-.76,1.67-2.37.89-3.6Z"></path><path class="cls-2" d="m1158.57,252.6c-1.35-2.14-4.22-2.81-6.42-1.5-2.2,1.31-2.89,4.1-1.54,6.24,1.35,2.14,4.22,2.81,6.42,1.5,2.2-1.31,2.89-4.1,1.54-6.24Z"></path><path class="cls-2" d="m1428.35,268.33c-.78-1.23-2.44-1.62-3.71-.86-1.27.76-1.67,2.37-.89,3.6.78,1.23,2.44,1.62,3.71.86,1.27-.76,1.67-2.37.89-3.6Z"></path><path class="cls-2" d="m1540.89,333.55c-.48-.76-1.5-1-2.28-.53-.78.47-1.03,1.46-.55,2.22.48.76,1.5,1,2.28.53.78-.47,1.03-1.46.55-2.22Z"></path><path class="cls-2" d="m1899.43,421.76c-.42-.66-1.31-.87-2-.47-.68.41-.9,1.28-.48,1.94.42.66,1.31.87,2,.47.68-.41.9-1.28.48-1.94Z"></path><path class="cls-2" d="m2151.45,490.95c-.36-.57-1.13-.75-1.71-.4-.59.35-.77,1.09-.41,1.66.36.57,1.13.75,1.71.4.59-.35.77-1.09.41-1.66Z"></path><path class="cls-2" d="m684.11,74.84c-.72-1.14-2.25-1.5-3.43-.8-1.17.7-1.54,2.19-.82,3.33.21.33.49.59.81.78l3.59-1.07c.32-.7.29-1.54-.15-2.24Z"></path><path class="cls-2" d="m1097.62,69.37c-.64.38-1.06.99-1.22,1.65l4.46-1.32c-.86-.78-2.18-.95-3.24-.32Z"></path><path class="cls-2" d="m1440.18,207.56c-.93-1.47-2.91-1.93-4.42-1.03-1.51.9-1.99,2.83-1.06,4.3.93,1.47,2.91,1.93,4.42,1.03,1.51-.9,1.99-2.83,1.06-4.3Z"></path><path class="cls-2" d="m1625.7,297.12c-.48-.76-1.5-1-2.28-.53-.78.47-1.03,1.46-.55,2.22.48.76,1.5,1,2.28.53.78-.47,1.03-1.46.55-2.22Z"></path><path class="cls-2" d="m2040.74,274.29c-.33-.52-1.03-.69-1.57-.37-.54.32-.71,1-.38,1.52.33.52,1.03.69,1.57.37.54-.32.71-1,.38-1.52Z"></path><path class="cls-2" d="m2213.51,287.8c-.33-.52-1.03-.69-1.57-.37-.54.32-.71,1-.38,1.52.33.52,1.03.69,1.57.37.54-.32.71-1,.38-1.52Z"></path><path class="cls-2" d="m1463.08,80.84c-1.11-1.76-3.47-2.31-5.28-1.23-1.81,1.08-2.38,3.37-1.27,5.13.63.99,1.65,1.6,2.75,1.75l3.08-.91c1.36-1.18,1.71-3.17.72-4.73Z"></path><path class="cls-2" d="m1701.2,108.32c-.39-.62-1.22-.81-1.86-.43-.64.38-.83,1.19-.45,1.8.39.62,1.22.81,1.86.43.64-.38.83-1.19.45-1.8Z"></path><path class="cls-2" d="m1874.12,129.03c-.36-.57-1.13-.75-1.71-.4-.59.35-.77,1.09-.41,1.66.36.57,1.13.75,1.71.4.59-.35.77-1.09.41-1.66Z"></path><path class="cls-2" d="m2246.74,70.58c-.24-.38-.75-.5-1.14-.27-.39.23-.51.73-.27,1.11s.75.5,1.14.27c.39-.23.51-.73.27-1.11Z"></path></g><rect class="cls-1" x="1.15" y="1744.87" width="2315.97" height="3261"></rect></svg>